<svg width="240" height="158" viewBox="0 0 240 158" fill="none" xmlns="http://www.w3.org/2000/svg">
<g filter="url(#filter0_d_1_2405)">
<rect x="16" width="208" height="126" rx="20" fill="white"/>
<path d="M41 15L43.9389 20.9549L50.5106 21.9098L45.7553 26.5451L46.8779 33.0902L41 30L35.1221 33.0902L36.2447 26.5451L31.4894 21.9098L38.0611 20.9549L41 15Z" fill="#FBA457"/>
<path d="M71 15L73.9389 20.9549L80.5106 21.9098L75.7553 26.5451L76.8779 33.0902L71 30L65.1221 33.0902L66.2447 26.5451L61.4894 21.9098L68.0611 20.9549L71 15Z" fill="#FBA457"/>
<path d="M101 15L103.939 20.9549L110.511 21.9098L105.755 26.5451L106.878 33.0902L101 30L95.1221 33.0902L96.2447 26.5451L91.4894 21.9098L98.0611 20.9549L101 15Z" fill="#FBA457"/>
<path d="M131 15L133.939 20.9549L140.511 21.9098L135.755 26.5451L136.878 33.0902L131 30L125.122 33.0902L126.245 26.5451L121.489 21.9098L128.061 20.9549L131 15Z" fill="#FBA457"/>
<path d="M161 15L163.939 20.9549L170.511 21.9098L165.755 26.5451L166.878 33.0902L161 30L155.122 33.0902L156.245 26.5451L151.489 21.9098L158.061 20.9549L161 15Z" fill="#FBA457"/>
<path d="M33.058 63V54.04L34.038 55.02H31.098V53.2H35.326V63H33.058ZM41.0884 63.168C40.2671 63.168 39.5484 63.0467 38.9324 62.804C38.3164 62.552 37.8358 62.202 37.4904 61.754C37.1451 61.2967 36.9724 60.7647 36.9724 60.158C36.9724 59.5513 37.1404 59.038 37.4764 58.618C37.8218 58.1887 38.3024 57.8667 38.9184 57.652C39.5344 57.428 40.2578 57.316 41.0884 57.316C41.9284 57.316 42.6564 57.428 43.2724 57.652C43.8978 57.8667 44.3784 58.1887 44.7144 58.618C45.0598 59.038 45.2324 59.5513 45.2324 60.158C45.2324 60.7647 45.0598 61.2967 44.7144 61.754C44.3691 62.202 43.8838 62.552 43.2584 62.804C42.6424 63.0467 41.9191 63.168 41.0884 63.168ZM41.0884 61.502C41.6578 61.502 42.1058 61.376 42.4324 61.124C42.7684 60.872 42.9364 60.5267 42.9364 60.088C42.9364 59.6493 42.7684 59.3087 42.4324 59.066C42.1058 58.814 41.6578 58.688 41.0884 58.688C40.5284 58.688 40.0851 58.814 39.7584 59.066C39.4318 59.3087 39.2684 59.6493 39.2684 60.088C39.2684 60.5267 39.4318 60.872 39.7584 61.124C40.0851 61.376 40.5284 61.502 41.0884 61.502ZM41.0884 58.464C40.3324 58.464 39.6698 58.3613 39.1004 58.156C38.5404 57.9507 38.1018 57.652 37.7844 57.26C37.4764 56.8587 37.3224 56.3827 37.3224 55.832C37.3224 55.2533 37.4811 54.7587 37.7984 54.348C38.1158 53.928 38.5591 53.606 39.1284 53.382C39.6978 53.1487 40.3511 53.032 41.0884 53.032C41.8444 53.032 42.5024 53.1487 43.0624 53.382C43.6318 53.606 44.0751 53.928 44.3924 54.348C44.7191 54.7587 44.8824 55.2533 44.8824 55.832C44.8824 56.3827 44.7238 56.8587 44.4064 57.26C44.0984 57.652 43.6598 57.9507 43.0904 58.156C42.5211 58.3613 41.8538 58.464 41.0884 58.464ZM41.0884 57.134C41.5644 57.134 41.9378 57.0267 42.2084 56.812C42.4884 56.5973 42.6284 56.3033 42.6284 55.93C42.6284 55.538 42.4838 55.2347 42.1944 55.02C41.9144 54.8053 41.5458 54.698 41.0884 54.698C40.6404 54.698 40.2764 54.8053 39.9964 55.02C39.7164 55.2347 39.5764 55.538 39.5764 55.93C39.5764 56.3033 39.7118 56.5973 39.9824 56.812C40.2531 57.0267 40.6218 57.134 41.0884 57.134ZM49.6026 63.168C48.9213 63.168 48.2446 63.0793 47.5726 62.902C46.9099 62.7153 46.3406 62.454 45.8646 62.118L46.7606 60.382C47.1339 60.6527 47.5633 60.8673 48.0486 61.026C48.5433 61.1847 49.0426 61.264 49.5466 61.264C50.1159 61.264 50.5639 61.152 50.8906 60.928C51.2173 60.704 51.3806 60.3913 51.3806 59.99C51.3806 59.738 51.3153 59.514 51.1846 59.318C51.0539 59.122 50.8206 58.9727 50.4846 58.87C50.1579 58.7673 49.6959 58.716 49.0986 58.716H46.5926L47.0966 53.2H53.0746V55.02H47.9086L49.0846 53.984L48.7346 57.918L47.5586 56.882H49.6306C50.6013 56.882 51.3806 57.0173 51.9686 57.288C52.5659 57.5493 52.9999 57.9087 53.2706 58.366C53.5413 58.8233 53.6766 59.3413 53.6766 59.92C53.6766 60.4987 53.5319 61.0353 53.2426 61.53C52.9533 62.0153 52.5053 62.412 51.8986 62.72C51.3013 63.0187 50.5359 63.168 49.6026 63.168ZM56.1088 63V54.04L57.0888 55.02H54.1488V53.2H58.3768V63H56.1088ZM63.5232 53.032C64.4285 53.032 65.2079 53.2187 65.8612 53.592C66.5145 53.9653 67.0185 54.5113 67.3732 55.23C67.7279 55.9393 67.9052 56.826 67.9052 57.89C67.9052 59.0193 67.6905 59.976 67.2612 60.76C66.8412 61.544 66.2579 62.1413 65.5112 62.552C64.7645 62.9627 63.8965 63.168 62.9072 63.168C62.3939 63.168 61.8992 63.112 61.4232 63C60.9472 62.888 60.5365 62.72 60.1912 62.496L61.0312 60.83C61.3019 61.0167 61.5912 61.1473 61.8992 61.222C62.2072 61.2873 62.5292 61.32 62.8652 61.32C63.7052 61.32 64.3725 61.0633 64.8672 60.55C65.3712 60.0367 65.6232 59.276 65.6232 58.268C65.6232 58.1 65.6185 57.9133 65.6092 57.708C65.5999 57.5027 65.5765 57.2973 65.5392 57.092L66.1552 57.68C65.9965 58.044 65.7725 58.352 65.4832 58.604C65.1939 58.8467 64.8579 59.0333 64.4752 59.164C64.0925 59.2853 63.6632 59.346 63.1872 59.346C62.5619 59.346 61.9925 59.22 61.4792 58.968C60.9752 58.716 60.5692 58.3613 60.2612 57.904C59.9625 57.4467 59.8132 56.91 59.8132 56.294C59.8132 55.622 59.9765 55.0433 60.3032 54.558C60.6392 54.0727 61.0872 53.6993 61.6472 53.438C62.2165 53.1673 62.8419 53.032 63.5232 53.032ZM63.6632 54.726C63.3365 54.726 63.0519 54.7867 62.8092 54.908C62.5665 55.02 62.3752 55.188 62.2352 55.412C62.0952 55.6267 62.0252 55.8833 62.0252 56.182C62.0252 56.63 62.1745 56.9893 62.4732 57.26C62.7812 57.5213 63.1872 57.652 63.6912 57.652C64.0179 57.652 64.3072 57.5913 64.5592 57.47C64.8205 57.3393 65.0212 57.162 65.1612 56.938C65.3012 56.714 65.3712 56.462 65.3712 56.182C65.3712 55.902 65.3012 55.6547 65.1612 55.44C65.0305 55.216 64.8392 55.0433 64.5872 54.922C64.3352 54.7913 64.0272 54.726 63.6632 54.726ZM77.9001 63.112C77.2654 63.112 76.7101 62.972 76.2341 62.692C75.7581 62.412 75.3848 61.9873 75.1141 61.418C74.8528 60.8393 74.7221 60.1113 74.7221 59.234C74.7221 58.3473 74.8481 57.6193 75.1001 57.05C75.3521 56.4807 75.7161 56.056 76.1921 55.776C76.6681 55.496 77.2374 55.356 77.9001 55.356C78.6094 55.356 79.2441 55.5193 79.8041 55.846C80.3734 56.1633 80.8214 56.6113 81.1481 57.19C81.4841 57.7687 81.6521 58.45 81.6521 59.234C81.6521 60.0273 81.4841 60.7133 81.1481 61.292C80.8214 61.8707 80.3734 62.3187 79.8041 62.636C79.2441 62.9533 78.6094 63.112 77.9001 63.112ZM73.4481 65.716V55.468H75.5341V57.008L75.4921 59.248L75.6321 61.474V65.716H73.4481ZM77.5221 61.32C77.8861 61.32 78.2081 61.236 78.4881 61.068C78.7774 60.9 79.0061 60.662 79.1741 60.354C79.3514 60.0367 79.4401 59.6633 79.4401 59.234C79.4401 58.7953 79.3514 58.422 79.1741 58.114C79.0061 57.806 78.7774 57.568 78.4881 57.4C78.2081 57.232 77.8861 57.148 77.5221 57.148C77.1581 57.148 76.8314 57.232 76.5421 57.4C76.2528 57.568 76.0241 57.806 75.8561 58.114C75.6881 58.422 75.6041 58.7953 75.6041 59.234C75.6041 59.6633 75.6881 60.0367 75.8561 60.354C76.0241 60.662 76.2528 60.9 76.5421 61.068C76.8314 61.236 77.1581 61.32 77.5221 61.32ZM87.5678 63V61.53L87.4278 61.208V58.576C87.4278 58.1093 87.2831 57.7453 86.9938 57.484C86.7138 57.2227 86.2798 57.092 85.6918 57.092C85.2904 57.092 84.8938 57.1573 84.5018 57.288C84.1191 57.4093 83.7924 57.5773 83.5218 57.792L82.7378 56.266C83.1484 55.9767 83.6431 55.7527 84.2218 55.594C84.8004 55.4353 85.3884 55.356 85.9858 55.356C87.1338 55.356 88.0251 55.6267 88.6598 56.168C89.2944 56.7093 89.6118 57.554 89.6118 58.702V63H87.5678ZM85.2718 63.112C84.6838 63.112 84.1798 63.014 83.7598 62.818C83.3398 62.6127 83.0178 62.3373 82.7938 61.992C82.5698 61.6467 82.4578 61.2593 82.4578 60.83C82.4578 60.382 82.5651 59.99 82.7798 59.654C83.0038 59.318 83.3538 59.0567 83.8298 58.87C84.3058 58.674 84.9264 58.576 85.6918 58.576H87.6938V59.85H85.9298C85.4164 59.85 85.0618 59.934 84.8658 60.102C84.6791 60.27 84.5858 60.48 84.5858 60.732C84.5858 61.012 84.6931 61.236 84.9078 61.404C85.1318 61.5627 85.4351 61.642 85.8178 61.642C86.1818 61.642 86.5084 61.558 86.7978 61.39C87.0871 61.2127 87.2971 60.956 87.4278 60.62L87.7638 61.628C87.6051 62.1133 87.3158 62.482 86.8958 62.734C86.4758 62.986 85.9344 63.112 85.2718 63.112ZM95.247 63.168C94.631 63.168 94.071 63.0793 93.567 62.902C93.063 62.7153 92.6243 62.4307 92.251 62.048C91.887 61.656 91.6023 61.1567 91.397 60.55C91.201 59.9433 91.103 59.22 91.103 58.38C91.103 57.7827 91.1543 57.2367 91.257 56.742C91.3597 56.2473 91.5137 55.7993 91.719 55.398C91.9243 54.9873 92.1857 54.628 92.503 54.32C92.8297 54.0027 93.2077 53.7413 93.637 53.536C94.0757 53.3213 94.5703 53.158 95.121 53.046L98.705 52.332L98.999 54.208L95.835 54.838C95.6483 54.8753 95.4337 54.9267 95.191 54.992C94.9577 55.048 94.7197 55.1367 94.477 55.258C94.2437 55.3793 94.0243 55.552 93.819 55.776C93.623 55.9907 93.4643 56.2753 93.343 56.63C93.2217 56.9753 93.161 57.4047 93.161 57.918C93.161 58.0767 93.1657 58.198 93.175 58.282C93.1937 58.366 93.2077 58.4547 93.217 58.548C93.2357 58.6413 93.245 58.786 93.245 58.982L92.545 58.296C92.7503 57.8573 93.0117 57.484 93.329 57.176C93.6557 56.868 94.029 56.6347 94.449 56.476C94.8783 56.308 95.3543 56.224 95.877 56.224C96.5863 56.224 97.207 56.3687 97.739 56.658C98.2803 56.938 98.7003 57.3347 98.999 57.848C99.2977 58.3613 99.447 58.9447 99.447 59.598C99.447 60.3073 99.2697 60.9327 98.915 61.474C98.5603 62.006 98.0657 62.4213 97.431 62.72C96.8057 63.0187 96.0777 63.168 95.247 63.168ZM95.359 61.474C95.723 61.474 96.045 61.3947 96.325 61.236C96.605 61.068 96.8197 60.8487 96.969 60.578C97.1277 60.298 97.207 59.9853 97.207 59.64C97.207 59.304 97.1277 59.0053 96.969 58.744C96.8197 58.4827 96.605 58.2773 96.325 58.128C96.045 57.9787 95.7183 57.904 95.345 57.904C94.981 57.904 94.6543 57.9787 94.365 58.128C94.0757 58.268 93.8517 58.464 93.693 58.716C93.5343 58.968 93.455 59.262 93.455 59.598C93.455 59.9433 93.5343 60.2607 93.693 60.55C93.861 60.83 94.085 61.054 94.365 61.222C94.6543 61.39 94.9857 61.474 95.359 61.474ZM104.457 63.112C103.654 63.112 102.94 62.944 102.315 62.608C101.699 62.272 101.209 61.8147 100.845 61.236C100.49 60.648 100.313 59.9807 100.313 59.234C100.313 58.478 100.49 57.8107 100.845 57.232C101.209 56.644 101.699 56.1867 102.315 55.86C102.94 55.524 103.654 55.356 104.457 55.356C105.25 55.356 105.96 55.524 106.585 55.86C107.21 56.1867 107.7 56.6393 108.055 57.218C108.41 57.7967 108.587 58.4687 108.587 59.234C108.587 59.9807 108.41 60.648 108.055 61.236C107.7 61.8147 107.21 62.272 106.585 62.608C105.96 62.944 105.25 63.112 104.457 63.112ZM104.457 61.32C104.821 61.32 105.148 61.236 105.437 61.068C105.726 60.9 105.955 60.662 106.123 60.354C106.291 60.0367 106.375 59.6633 106.375 59.234C106.375 58.7953 106.291 58.422 106.123 58.114C105.955 57.806 105.726 57.568 105.437 57.4C105.148 57.232 104.821 57.148 104.457 57.148C104.093 57.148 103.766 57.232 103.477 57.4C103.188 57.568 102.954 57.806 102.777 58.114C102.609 58.422 102.525 58.7953 102.525 59.234C102.525 59.6633 102.609 60.0367 102.777 60.354C102.954 60.662 103.188 60.9 103.477 61.068C103.766 61.236 104.093 61.32 104.457 61.32ZM111.426 63V56.756L111.916 57.26H108.878V55.468H116.144V57.26H113.106L113.596 56.756V63H111.426ZM117.308 63V55.468H119.478V58.408H122.754V55.468H124.938V63H122.754V60.186H119.478V63H117.308ZM127.029 63V55.468H129.199V59.948L132.867 55.468H134.869V63H132.699V58.52L129.045 63H127.029ZM142.302 63L139.782 59.43L141.56 58.38L144.878 63H142.302ZM136.968 63V55.468H139.152V63H136.968ZM138.508 60.144V58.394H141.14V60.144H138.508ZM141.77 59.486L139.726 59.262L142.372 55.468H144.696L141.77 59.486ZM149.246 63.112C148.443 63.112 147.729 62.944 147.104 62.608C146.488 62.272 145.998 61.8147 145.634 61.236C145.279 60.648 145.102 59.9807 145.102 59.234C145.102 58.478 145.279 57.8107 145.634 57.232C145.998 56.644 146.488 56.1867 147.104 55.86C147.729 55.524 148.443 55.356 149.246 55.356C150.039 55.356 150.749 55.524 151.374 55.86C151.999 56.1867 152.489 56.6393 152.844 57.218C153.199 57.7967 153.376 58.4687 153.376 59.234C153.376 59.9807 153.199 60.648 152.844 61.236C152.489 61.8147 151.999 62.272 151.374 62.608C150.749 62.944 150.039 63.112 149.246 63.112ZM149.246 61.32C149.61 61.32 149.937 61.236 150.226 61.068C150.515 60.9 150.744 60.662 150.912 60.354C151.08 60.0367 151.164 59.6633 151.164 59.234C151.164 58.7953 151.08 58.422 150.912 58.114C150.744 57.806 150.515 57.568 150.226 57.4C149.937 57.232 149.61 57.148 149.246 57.148C148.882 57.148 148.555 57.232 148.266 57.4C147.977 57.568 147.743 57.806 147.566 58.114C147.398 58.422 147.314 58.7953 147.314 59.234C147.314 59.6633 147.398 60.0367 147.566 60.354C147.743 60.662 147.977 60.9 148.266 61.068C148.555 61.236 148.882 61.32 149.246 61.32ZM154.878 63V55.468H158.728C159.671 55.468 160.408 55.6407 160.94 55.986C161.472 56.322 161.738 56.798 161.738 57.414C161.738 58.03 161.486 58.5153 160.982 58.87C160.487 59.2153 159.829 59.388 159.008 59.388L159.232 58.884C160.147 58.884 160.828 59.052 161.276 59.388C161.733 59.724 161.962 60.214 161.962 60.858C161.962 61.5207 161.71 62.0433 161.206 62.426C160.702 62.8087 159.932 63 158.896 63H154.878ZM156.88 61.516H158.714C159.115 61.516 159.414 61.4507 159.61 61.32C159.815 61.18 159.918 60.97 159.918 60.69C159.918 60.4007 159.825 60.1907 159.638 60.06C159.451 59.92 159.157 59.85 158.756 59.85H156.88V61.516ZM156.88 58.562H158.532C158.915 58.562 159.199 58.492 159.386 58.352C159.582 58.212 159.68 58.0113 159.68 57.75C159.68 57.4793 159.582 57.2787 159.386 57.148C159.199 57.0173 158.915 56.952 158.532 56.952H156.88V58.562ZM32.05 84V76.468H34.332L37.174 81.62H36.264L39.302 76.468H41.346L41.374 84H39.4V78.708L39.736 78.932L37.146 83.272H36.222L33.618 78.778L34.024 78.68V84H32.05ZM51.222 84V76.468H53.392V84H51.222ZM47.428 78.876C48.4173 78.8853 49.1593 79.1093 49.654 79.548C50.158 79.9773 50.41 80.5887 50.41 81.382C50.41 82.2127 50.1253 82.8613 49.556 83.328C48.9867 83.7853 48.1793 84.014 47.134 84.014L43.466 84V76.468H45.636V78.876H47.428ZM46.938 82.46C47.358 82.4693 47.68 82.3807 47.904 82.194C48.128 82.0073 48.24 81.7273 48.24 81.354C48.24 80.9807 48.128 80.7147 47.904 80.556C47.68 80.388 47.358 80.2993 46.938 80.29L45.636 80.276V82.46H46.938ZM59.4621 84V76.468H63.3121C64.2548 76.468 64.9921 76.6407 65.5241 76.986C66.0561 77.322 66.3221 77.798 66.3221 78.414C66.3221 79.03 66.0701 79.5153 65.5661 79.87C65.0714 80.2153 64.4134 80.388 63.5921 80.388L63.8161 79.884C64.7308 79.884 65.4121 80.052 65.8601 80.388C66.3174 80.724 66.5461 81.214 66.5461 81.858C66.5461 82.5207 66.2941 83.0433 65.7901 83.426C65.2861 83.8087 64.5161 84 63.4801 84H59.4621ZM61.4641 82.516H63.2981C63.6994 82.516 63.9981 82.4507 64.1941 82.32C64.3994 82.18 64.5021 81.97 64.5021 81.69C64.5021 81.4007 64.4088 81.1907 64.2221 81.06C64.0354 80.92 63.7414 80.85 63.3401 80.85H61.4641V82.516ZM61.4641 79.562H63.1161C63.4988 79.562 63.7834 79.492 63.9701 79.352C64.1661 79.212 64.2641 79.0113 64.2641 78.75C64.2641 78.4793 64.1661 78.2787 63.9701 78.148C63.7834 78.0173 63.4988 77.952 63.1161 77.952H61.4641V79.562ZM75.9271 84V76.468H78.0971V84H75.9271ZM72.1331 78.876C73.1224 78.8853 73.8644 79.1093 74.3591 79.548C74.8631 79.9773 75.1151 80.5887 75.1151 81.382C75.1151 82.2127 74.8304 82.8613 74.2611 83.328C73.6918 83.7853 72.8844 84.014 71.8391 84.014L68.1711 84V76.468H70.3411V78.876H72.1331ZM71.6431 82.46C72.0631 82.4693 72.3851 82.3807 72.6091 82.194C72.8331 82.0073 72.9451 81.7273 72.9451 81.354C72.9451 80.9807 72.8331 80.7147 72.6091 80.556C72.3851 80.388 72.0631 80.2993 71.6431 80.29L70.3411 80.276V82.46H71.6431ZM80.2023 84V76.468H84.0523C84.995 76.468 85.7323 76.6407 86.2643 76.986C86.7963 77.322 87.0623 77.798 87.0623 78.414C87.0623 79.03 86.8103 79.5153 86.3063 79.87C85.8117 80.2153 85.1537 80.388 84.3323 80.388L84.5563 79.884C85.471 79.884 86.1523 80.052 86.6003 80.388C87.0577 80.724 87.2863 81.214 87.2863 81.858C87.2863 82.5207 87.0343 83.0433 86.5303 83.426C86.0263 83.8087 85.2563 84 84.2203 84H80.2023ZM82.2043 82.516H84.0383C84.4397 82.516 84.7383 82.4507 84.9343 82.32C85.1397 82.18 85.2423 81.97 85.2423 81.69C85.2423 81.4007 85.149 81.1907 84.9623 81.06C84.7757 80.92 84.4817 80.85 84.0803 80.85H82.2043V82.516ZM82.2043 79.562H83.8563C84.239 79.562 84.5237 79.492 84.7103 79.352C84.9063 79.212 85.0043 79.0113 85.0043 78.75C85.0043 78.4793 84.9063 78.2787 84.7103 78.148C84.5237 78.0173 84.239 77.952 83.8563 77.952H82.2043V79.562ZM92.5933 84.112C91.7347 84.112 90.9787 83.944 90.3253 83.608C89.6813 83.272 89.182 82.8147 88.8273 82.236C88.4727 81.648 88.2953 80.9807 88.2953 80.234C88.2953 79.478 88.468 78.8107 88.8133 78.232C89.168 77.644 89.6487 77.1867 90.2553 76.86C90.862 76.524 91.548 76.356 92.3133 76.356C93.0507 76.356 93.7133 76.5147 94.3013 76.832C94.8987 77.14 95.37 77.588 95.7153 78.176C96.0607 78.7547 96.2333 79.45 96.2333 80.262C96.2333 80.346 96.2287 80.444 96.2193 80.556C96.21 80.6587 96.2007 80.7567 96.1913 80.85H90.0733V79.576H95.0433L94.2033 79.954C94.2033 79.562 94.124 79.2213 93.9653 78.932C93.8067 78.6427 93.5873 78.4187 93.3073 78.26C93.0273 78.092 92.7007 78.008 92.3273 78.008C91.954 78.008 91.6227 78.092 91.3333 78.26C91.0533 78.4187 90.834 78.6473 90.6753 78.946C90.5167 79.2353 90.4373 79.5807 90.4373 79.982V80.318C90.4373 80.7287 90.526 81.0927 90.7033 81.41C90.89 81.718 91.1467 81.956 91.4733 82.124C91.8093 82.2827 92.2013 82.362 92.6493 82.362C93.0507 82.362 93.4007 82.3013 93.6993 82.18C94.0073 82.0587 94.2873 81.8767 94.5393 81.634L95.7013 82.894C95.356 83.286 94.922 83.5893 94.3993 83.804C93.8767 84.0093 93.2747 84.112 92.5933 84.112ZM96.8871 83.986L96.9991 82.194C97.0551 82.2033 97.1111 82.2127 97.1671 82.222C97.2231 82.222 97.2744 82.222 97.3211 82.222C97.5824 82.222 97.7877 82.1473 97.9371 81.998C98.0864 81.8487 98.1984 81.648 98.2731 81.396C98.3477 81.1347 98.3991 80.8407 98.4271 80.514C98.4644 80.1873 98.4924 79.8467 98.5111 79.492L98.6231 76.468H105.063V84H102.879V77.728L103.369 78.26H100.065L100.527 77.7L100.429 79.59C100.401 80.262 100.345 80.878 100.261 81.438C100.186 81.998 100.06 82.4833 99.8831 82.894C99.7057 83.2953 99.4677 83.608 99.1691 83.832C98.8704 84.0467 98.4877 84.154 98.0211 84.154C97.8531 84.154 97.6757 84.14 97.4891 84.112C97.3024 84.084 97.1017 84.042 96.8871 83.986ZM107.163 84V76.468H109.333V80.948L113.001 76.468H115.003V84H112.833V79.52L109.179 84H107.163ZM121.068 84V76.468H123.238V79.408H126.514V76.468H128.698V84H126.514V81.186H123.238V84H121.068ZM135.296 84V82.53L135.156 82.208V79.576C135.156 79.1093 135.012 78.7453 134.722 78.484C134.442 78.2227 134.008 78.092 133.42 78.092C133.019 78.092 132.622 78.1573 132.23 78.288C131.848 78.4093 131.521 78.5773 131.25 78.792L130.466 77.266C130.877 76.9767 131.372 76.7527 131.95 76.594C132.529 76.4353 133.117 76.356 133.714 76.356C134.862 76.356 135.754 76.6267 136.388 77.168C137.023 77.7093 137.34 78.554 137.34 79.702V84H135.296ZM133 84.112C132.412 84.112 131.908 84.014 131.488 83.818C131.068 83.6127 130.746 83.3373 130.522 82.992C130.298 82.6467 130.186 82.2593 130.186 81.83C130.186 81.382 130.294 80.99 130.508 80.654C130.732 80.318 131.082 80.0567 131.558 79.87C132.034 79.674 132.655 79.576 133.42 79.576H135.422V80.85H133.658C133.145 80.85 132.79 80.934 132.594 81.102C132.408 81.27 132.314 81.48 132.314 81.732C132.314 82.012 132.422 82.236 132.636 82.404C132.86 82.5627 133.164 82.642 133.546 82.642C133.91 82.642 134.237 82.558 134.526 82.39C134.816 82.2127 135.026 81.956 135.156 81.62L135.492 82.628C135.334 83.1133 135.044 83.482 134.624 83.734C134.204 83.986 133.663 84.112 133 84.112ZM146.73 84.112C145.928 84.112 145.214 83.944 144.588 83.608C143.972 83.272 143.482 82.8147 143.118 82.236C142.764 81.648 142.586 80.9807 142.586 80.234C142.586 79.478 142.764 78.8107 143.118 78.232C143.482 77.644 143.972 77.1867 144.588 76.86C145.214 76.524 145.928 76.356 146.73 76.356C147.524 76.356 148.233 76.524 148.858 76.86C149.484 77.1867 149.974 77.6393 150.328 78.218C150.683 78.7967 150.86 79.4687 150.86 80.234C150.86 80.9807 150.683 81.648 150.328 82.236C149.974 82.8147 149.484 83.272 148.858 83.608C148.233 83.944 147.524 84.112 146.73 84.112ZM146.73 82.32C147.094 82.32 147.421 82.236 147.71 82.068C148 81.9 148.228 81.662 148.396 81.354C148.564 81.0367 148.648 80.6633 148.648 80.234C148.648 79.7953 148.564 79.422 148.396 79.114C148.228 78.806 148 78.568 147.71 78.4C147.421 78.232 147.094 78.148 146.73 78.148C146.366 78.148 146.04 78.232 145.75 78.4C145.461 78.568 145.228 78.806 145.05 79.114C144.882 79.422 144.798 79.7953 144.798 80.234C144.798 80.6633 144.882 81.0367 145.05 81.354C145.228 81.662 145.461 81.9 145.75 82.068C146.04 82.236 146.366 82.32 146.73 82.32ZM156.101 84.168C155.485 84.168 154.925 84.0793 154.421 83.902C153.917 83.7153 153.478 83.4307 153.105 83.048C152.741 82.656 152.456 82.1567 152.251 81.55C152.055 80.9433 151.957 80.22 151.957 79.38C151.957 78.7827 152.008 78.2367 152.111 77.742C152.213 77.2473 152.367 76.7993 152.573 76.398C152.778 75.9873 153.039 75.628 153.357 75.32C153.683 75.0027 154.061 74.7413 154.491 74.536C154.929 74.3213 155.424 74.158 155.975 74.046L159.559 73.332L159.853 75.208L156.689 75.838C156.502 75.8753 156.287 75.9267 156.045 75.992C155.811 76.048 155.573 76.1367 155.331 76.258C155.097 76.3793 154.878 76.552 154.673 76.776C154.477 76.9907 154.318 77.2753 154.197 77.63C154.075 77.9753 154.015 78.4047 154.015 78.918C154.015 79.0767 154.019 79.198 154.029 79.282C154.047 79.366 154.061 79.4547 154.071 79.548C154.089 79.6413 154.099 79.786 154.099 79.982L153.399 79.296C153.604 78.8573 153.865 78.484 154.183 78.176C154.509 77.868 154.883 77.6347 155.303 77.476C155.732 77.308 156.208 77.224 156.731 77.224C157.44 77.224 158.061 77.3687 158.593 77.658C159.134 77.938 159.554 78.3347 159.853 78.848C160.151 79.3613 160.301 79.9447 160.301 80.598C160.301 81.3073 160.123 81.9327 159.769 82.474C159.414 83.006 158.919 83.4213 158.285 83.72C157.659 84.0187 156.931 84.168 156.101 84.168ZM156.213 82.474C156.577 82.474 156.899 82.3947 157.179 82.236C157.459 82.068 157.673 81.8487 157.823 81.578C157.981 81.298 158.061 80.9853 158.061 80.64C158.061 80.304 157.981 80.0053 157.823 79.744C157.673 79.4827 157.459 79.2773 157.179 79.128C156.899 78.9787 156.572 78.904 156.199 78.904C155.835 78.904 155.508 78.9787 155.219 79.128C154.929 79.268 154.705 79.464 154.547 79.716C154.388 79.968 154.309 80.262 154.309 80.598C154.309 80.9433 154.388 81.2607 154.547 81.55C154.715 81.83 154.939 82.054 155.219 82.222C155.508 82.39 155.839 82.474 156.213 82.474ZM166.689 78.876C167.669 78.876 168.416 79.0953 168.929 79.534C169.442 79.9727 169.699 80.584 169.699 81.368C169.699 82.208 169.405 82.8567 168.817 83.314C168.238 83.7713 167.426 84 166.381 84H162.741V78.26H160.571V76.468H164.925V78.876H166.689ZM166.255 82.46C166.656 82.46 166.96 82.362 167.165 82.166C167.37 81.97 167.473 81.69 167.473 81.326C167.473 80.6353 167.067 80.29 166.255 80.29H164.925V82.46H166.255ZM174.734 84.112C173.875 84.112 173.119 83.944 172.466 83.608C171.822 83.272 171.323 82.8147 170.968 82.236C170.613 81.648 170.436 80.9807 170.436 80.234C170.436 79.478 170.609 78.8107 170.954 78.232C171.309 77.644 171.789 77.1867 172.396 76.86C173.003 76.524 173.689 76.356 174.454 76.356C175.191 76.356 175.854 76.5147 176.442 76.832C177.039 77.14 177.511 77.588 177.856 78.176C178.201 78.7547 178.374 79.45 178.374 80.262C178.374 80.346 178.369 80.444 178.36 80.556C178.351 80.6587 178.341 80.7567 178.332 80.85H172.214V79.576H177.184L176.344 79.954C176.344 79.562 176.265 79.2213 176.106 78.932C175.947 78.6427 175.728 78.4187 175.448 78.26C175.168 78.092 174.841 78.008 174.468 78.008C174.095 78.008 173.763 78.092 173.474 78.26C173.194 78.4187 172.975 78.6473 172.816 78.946C172.657 79.2353 172.578 79.5807 172.578 79.982V80.318C172.578 80.7287 172.667 81.0927 172.844 81.41C173.031 81.718 173.287 81.956 173.614 82.124C173.95 82.2827 174.342 82.362 174.79 82.362C175.191 82.362 175.541 82.3013 175.84 82.18C176.148 82.0587 176.428 81.8767 176.68 81.634L177.842 82.894C177.497 83.286 177.063 83.5893 176.54 83.804C176.017 84.0093 175.415 84.112 174.734 84.112ZM185.382 84L182.862 80.43L184.64 79.38L187.958 84H185.382ZM180.048 84V76.468H182.232V84H180.048ZM181.588 81.144V79.394H184.22V81.144H181.588ZM184.85 80.486L182.806 80.262L185.452 76.468H187.776L184.85 80.486ZM190.572 84V77.756L191.062 78.26H188.024V76.468H195.29V78.26H192.252L192.742 77.756V84H190.572ZM204.21 84V76.468H206.38V84H204.21ZM200.416 78.876C201.406 78.8853 202.148 79.1093 202.642 79.548C203.146 79.9773 203.398 80.5887 203.398 81.382C203.398 82.2127 203.114 82.8613 202.544 83.328C201.975 83.7853 201.168 84.014 200.122 84.014L196.454 84V76.468H198.624V78.876H200.416ZM199.926 82.46C200.346 82.4693 200.668 82.3807 200.892 82.194C201.116 82.0073 201.228 81.7273 201.228 81.354C201.228 80.9807 201.116 80.7147 200.892 80.556C200.668 80.388 200.346 80.2993 199.926 80.29L198.624 80.276V82.46H199.926ZM34.598 105.14C34.0193 105.14 33.4407 105.079 32.862 104.958C32.2927 104.837 31.7653 104.655 31.28 104.412L31.868 102.886C32.2507 103.073 32.666 103.217 33.114 103.32C33.5713 103.413 34.0333 103.46 34.5 103.46C34.836 103.46 35.1253 103.427 35.368 103.362C35.62 103.287 35.8113 103.185 35.942 103.054C36.0727 102.923 36.138 102.765 36.138 102.578C36.138 102.335 36.0353 102.153 35.83 102.032C35.6247 101.901 35.326 101.836 34.934 101.836H33.394V100.478H34.752C35.004 100.478 35.2187 100.45 35.396 100.394C35.5733 100.338 35.704 100.259 35.788 100.156C35.8813 100.044 35.928 99.9133 35.928 99.764C35.928 99.6053 35.872 99.47 35.76 99.358C35.648 99.246 35.4847 99.162 35.27 99.106C35.0553 99.0407 34.7847 99.008 34.458 99.008C34.0847 99.008 33.6973 99.0547 33.296 99.148C32.8947 99.232 32.484 99.358 32.064 99.526L31.532 98.014C32.0267 97.8087 32.5167 97.6453 33.002 97.524C33.4873 97.4027 33.968 97.3373 34.444 97.328C35.144 97.3093 35.774 97.384 36.334 97.552C36.894 97.72 37.3327 97.9627 37.65 98.28C37.9767 98.5973 38.14 98.9847 38.14 99.442C38.14 99.806 38.028 100.133 37.804 100.422C37.5893 100.711 37.2907 100.94 36.908 101.108C36.5253 101.267 36.096 101.346 35.62 101.346L35.676 100.912C36.5067 100.912 37.16 101.08 37.636 101.416C38.112 101.743 38.35 102.191 38.35 102.76C38.35 103.245 38.182 103.67 37.846 104.034C37.5193 104.389 37.0713 104.664 36.502 104.86C35.942 105.047 35.3073 105.14 34.598 105.14ZM44.4193 105V103.53L44.2793 103.208V100.576C44.2793 100.109 44.1347 99.7453 43.8453 99.484C43.5653 99.2227 43.1313 99.092 42.5433 99.092C42.142 99.092 41.7453 99.1573 41.3533 99.288C40.9707 99.4093 40.644 99.5773 40.3733 99.792L39.5893 98.266C40 97.9767 40.4947 97.7527 41.0733 97.594C41.652 97.4353 42.24 97.356 42.8373 97.356C43.9853 97.356 44.8767 97.6267 45.5113 98.168C46.146 98.7093 46.4633 99.554 46.4633 100.702V105H44.4193ZM42.1233 105.112C41.5353 105.112 41.0313 105.014 40.6113 104.818C40.1913 104.613 39.8693 104.337 39.6453 103.992C39.4213 103.647 39.3093 103.259 39.3093 102.83C39.3093 102.382 39.4167 101.99 39.6313 101.654C39.8553 101.318 40.2053 101.057 40.6813 100.87C41.1573 100.674 41.778 100.576 42.5433 100.576H44.5453V101.85H42.7813C42.268 101.85 41.9133 101.934 41.7173 102.102C41.5307 102.27 41.4373 102.48 41.4373 102.732C41.4373 103.012 41.5447 103.236 41.7593 103.404C41.9833 103.563 42.2867 103.642 42.6693 103.642C43.0333 103.642 43.36 103.558 43.6493 103.39C43.9387 103.213 44.1487 102.956 44.2793 102.62L44.6153 103.628C44.4567 104.113 44.1673 104.482 43.7473 104.734C43.3273 104.986 42.786 105.112 42.1233 105.112ZM53.6945 105L51.1745 101.43L52.9525 100.38L56.2705 105H53.6945ZM48.3605 105V97.468H50.5445V105H48.3605ZM49.9005 102.144V100.394H52.5325V102.144H49.9005ZM53.1625 101.486L51.1185 101.262L53.7645 97.468H56.0885L53.1625 101.486ZM61.7143 105V103.53L61.5743 103.208V100.576C61.5743 100.109 61.4296 99.7453 61.1403 99.484C60.8603 99.2227 60.4263 99.092 59.8383 99.092C59.4369 99.092 59.0403 99.1573 58.6483 99.288C58.2656 99.4093 57.9389 99.5773 57.6683 99.792L56.8843 98.266C57.2949 97.9767 57.7896 97.7527 58.3683 97.594C58.9469 97.4353 59.5349 97.356 60.1323 97.356C61.2803 97.356 62.1716 97.6267 62.8063 98.168C63.4409 98.7093 63.7583 99.554 63.7583 100.702V105H61.7143ZM59.4183 105.112C58.8303 105.112 58.3263 105.014 57.9062 104.818C57.4863 104.613 57.1643 104.337 56.9403 103.992C56.7163 103.647 56.6043 103.259 56.6043 102.83C56.6043 102.382 56.7116 101.99 56.9263 101.654C57.1503 101.318 57.5003 101.057 57.9763 100.87C58.4523 100.674 59.0729 100.576 59.8383 100.576H61.8403V101.85H60.0763C59.5629 101.85 59.2083 101.934 59.0123 102.102C58.8256 102.27 58.7323 102.48 58.7323 102.732C58.7323 103.012 58.8396 103.236 59.0543 103.404C59.2783 103.563 59.5816 103.642 59.9643 103.642C60.3283 103.642 60.6549 103.558 60.9443 103.39C61.2336 103.213 61.4436 102.956 61.5743 102.62L61.9103 103.628C61.7516 104.113 61.4623 104.482 61.0423 104.734C60.6223 104.986 60.0809 105.112 59.4183 105.112ZM68.1351 105.14C67.5564 105.14 66.9778 105.079 66.3991 104.958C65.8298 104.837 65.3024 104.655 64.8171 104.412L65.4051 102.886C65.7878 103.073 66.2031 103.217 66.6511 103.32C67.1084 103.413 67.5704 103.46 68.0371 103.46C68.3731 103.46 68.6624 103.427 68.9051 103.362C69.1571 103.287 69.3484 103.185 69.4791 103.054C69.6098 102.923 69.6751 102.765 69.6751 102.578C69.6751 102.335 69.5724 102.153 69.3671 102.032C69.1618 101.901 68.8631 101.836 68.4711 101.836H66.9311V100.478H68.2891C68.5411 100.478 68.7558 100.45 68.9331 100.394C69.1104 100.338 69.2411 100.259 69.3251 100.156C69.4184 100.044 69.4651 99.9133 69.4651 99.764C69.4651 99.6053 69.4091 99.47 69.2971 99.358C69.1851 99.246 69.0218 99.162 68.8071 99.106C68.5924 99.0407 68.3218 99.008 67.9951 99.008C67.6218 99.008 67.2344 99.0547 66.8331 99.148C66.4318 99.232 66.0211 99.358 65.6011 99.526L65.0691 98.014C65.5638 97.8087 66.0538 97.6453 66.5391 97.524C67.0244 97.4027 67.5051 97.3373 67.9811 97.328C68.6811 97.3093 69.3111 97.384 69.8711 97.552C70.4311 97.72 70.8698 97.9627 71.1871 98.28C71.5138 98.5973 71.6771 98.9847 71.6771 99.442C71.6771 99.806 71.5651 100.133 71.3411 100.422C71.1264 100.711 70.8278 100.94 70.4451 101.108C70.0624 101.267 69.6331 101.346 69.1571 101.346L69.2131 100.912C70.0438 100.912 70.6971 101.08 71.1731 101.416C71.6491 101.743 71.8871 102.191 71.8871 102.76C71.8871 103.245 71.7191 103.67 71.3831 104.034C71.0564 104.389 70.6084 104.664 70.0391 104.86C69.4791 105.047 68.8444 105.14 68.1351 105.14ZM78.1944 102.116C77.8864 102.284 77.5458 102.419 77.1724 102.522C76.7991 102.625 76.3884 102.676 75.9404 102.676C74.9511 102.676 74.1904 102.452 73.6584 102.004C73.1264 101.547 72.8604 100.823 72.8604 99.834V97.468H75.0444V99.694C75.0444 100.161 75.1658 100.497 75.4084 100.702C75.6511 100.898 75.9918 100.996 76.4304 100.996C76.7478 100.996 77.0511 100.959 77.3404 100.884C77.6391 100.809 77.9238 100.702 78.1944 100.562V102.116ZM78.0404 105V97.468H80.2244V105H78.0404ZM82.3215 105V97.468H84.4915V101.948L88.1595 97.468H90.1615V105H87.9915V100.52L84.3375 105H82.3215ZM97.5949 105L95.0749 101.43L96.8529 100.38L100.171 105H97.5949ZM92.2609 105V97.468H94.4449V105H92.2609ZM93.8009 102.144V100.394H96.4329V102.144H93.8009ZM97.0629 101.486L95.0189 101.262L97.6649 97.468H99.9889L97.0629 101.486ZM104.539 105.112C103.736 105.112 103.022 104.944 102.397 104.608C101.781 104.272 101.291 103.815 100.927 103.236C100.572 102.648 100.395 101.981 100.395 101.234C100.395 100.478 100.572 99.8107 100.927 99.232C101.291 98.644 101.781 98.1867 102.397 97.86C103.022 97.524 103.736 97.356 104.539 97.356C105.332 97.356 106.042 97.524 106.667 97.86C107.292 98.1867 107.782 98.6393 108.137 99.218C108.492 99.7967 108.669 100.469 108.669 101.234C108.669 101.981 108.492 102.648 108.137 103.236C107.782 103.815 107.292 104.272 106.667 104.608C106.042 104.944 105.332 105.112 104.539 105.112ZM104.539 103.32C104.903 103.32 105.23 103.236 105.519 103.068C105.808 102.9 106.037 102.662 106.205 102.354C106.373 102.037 106.457 101.663 106.457 101.234C106.457 100.795 106.373 100.422 106.205 100.114C106.037 99.806 105.808 99.568 105.519 99.4C105.23 99.232 104.903 99.148 104.539 99.148C104.175 99.148 103.848 99.232 103.559 99.4C103.27 99.568 103.036 99.806 102.859 100.114C102.691 100.422 102.607 100.795 102.607 101.234C102.607 101.663 102.691 102.037 102.859 102.354C103.036 102.662 103.27 102.9 103.559 103.068C103.848 103.236 104.175 103.32 104.539 103.32ZM110.171 105V97.468H114.021C114.964 97.468 115.701 97.6407 116.233 97.986C116.765 98.322 117.031 98.798 117.031 99.414C117.031 100.03 116.779 100.515 116.275 100.87C115.78 101.215 115.122 101.388 114.301 101.388L114.525 100.884C115.44 100.884 116.121 101.052 116.569 101.388C117.026 101.724 117.255 102.214 117.255 102.858C117.255 103.521 117.003 104.043 116.499 104.426C115.995 104.809 115.225 105 114.189 105H110.171ZM112.173 103.516H114.007C114.408 103.516 114.707 103.451 114.903 103.32C115.108 103.18 115.211 102.97 115.211 102.69C115.211 102.401 115.118 102.191 114.931 102.06C114.744 101.92 114.45 101.85 114.049 101.85H112.173V103.516ZM112.173 100.562H113.825C114.208 100.562 114.492 100.492 114.679 100.352C114.875 100.212 114.973 100.011 114.973 99.75C114.973 99.4793 114.875 99.2787 114.679 99.148C114.492 99.0173 114.208 98.952 113.825 98.952H112.173V100.562Z" fill="black"/>
</g>
<defs>
<filter id="filter0_d_1_2405" x="0" y="0" width="240" height="158" filterUnits="userSpaceOnUse" color-interpolation-filters="sRGB">
<feFlood flood-opacity="0" result="BackgroundImageFix"/>
<feColorMatrix in="SourceAlpha" type="matrix" values="0 0 0 0 0 0 0 0 0 0 0 0 0 0 0 0 0 0 127 0" result="hardAlpha"/>
<feOffset dy="16"/>
<feGaussianBlur stdDeviation="8"/>
<feColorMatrix type="matrix" values="0 0 0 0 0 0 0 0 0 0 0 0 0 0 0 0 0 0 0.04 0"/>
<feBlend mode="normal" in2="BackgroundImageFix" result="effect1_dropShadow_1_2405"/>
<feBlend mode="normal" in="SourceGraphic" in2="effect1_dropShadow_1_2405" result="shape"/>
</filter>
</defs>
</svg>
