<svg width="66" height="20" viewBox="0 0 66 20" fill="none" xmlns="http://www.w3.org/2000/svg">
<path d="M11.9583 1.6665H8.04167C7.17501 1.6665 6.46667 2.3665 6.46667 3.23317V4.0165C6.46667 4.88317 7.16667 5.58317 8.03334 5.58317H11.9583C12.825 5.58317 13.525 4.88317 13.525 4.0165V3.23317C13.5333 2.3665 12.825 1.6665 11.9583 1.6665Z" fill="#FBA457"/>
<path d="M14.3667 4.01689C14.3667 5.34189 13.2833 6.42523 11.9583 6.42523H8.04167C6.71667 6.42523 5.63334 5.34189 5.63334 4.01689C5.63334 3.55023 5.13334 3.25856 4.71667 3.47523C3.54167 4.10023 2.74167 5.34189 2.74167 6.76689V14.6086C2.74167 16.6586 4.41667 18.3336 6.46667 18.3336H13.5333C15.5833 18.3336 17.2583 16.6586 17.2583 14.6086V6.76689C17.2583 5.34189 16.4583 4.10023 15.2833 3.47523C14.8667 3.25856 14.3667 3.55023 14.3667 4.01689ZM12.7833 10.6086L9.45 13.9419C9.325 14.0669 9.16667 14.1252 9.00834 14.1252C8.85 14.1252 8.69167 14.0669 8.56667 13.9419L7.31667 12.6919C7.075 12.4502 7.075 12.0502 7.31667 11.8086C7.55834 11.5669 7.95834 11.5669 8.2 11.8086L9.00834 12.6169L11.9 9.72523C12.1417 9.48356 12.5417 9.48356 12.7833 9.72523C13.025 9.96689 13.025 10.3669 12.7833 10.6086Z" fill="#FBA457"/>
<path d="M57.9583 1.6665H54.0417C53.175 1.6665 52.4667 2.3665 52.4667 3.23317V4.0165C52.4667 4.88317 53.1667 5.58317 54.0333 5.58317H57.9583C58.825 5.58317 59.525 4.88317 59.525 4.0165V3.23317C59.5333 2.3665 58.825 1.6665 57.9583 1.6665Z" fill="#FBA457"/>
<path d="M60.3667 4.01689C60.3667 5.34189 59.2833 6.42523 57.9583 6.42523H54.0417C52.7167 6.42523 51.6333 5.34189 51.6333 4.01689C51.6333 3.55023 51.1333 3.25856 50.7167 3.47523C49.5417 4.10023 48.7417 5.34189 48.7417 6.76689V14.6086C48.7417 16.6586 50.4167 18.3336 52.4667 18.3336H59.5333C61.5833 18.3336 63.2583 16.6586 63.2583 14.6086V6.76689C63.2583 5.34189 62.4583 4.10023 61.2833 3.47523C60.8667 3.25856 60.3667 3.55023 60.3667 4.01689ZM58.7833 10.6086L55.45 13.9419C55.325 14.0669 55.1667 14.1252 55.0083 14.1252C54.85 14.1252 54.6917 14.0669 54.5667 13.9419L53.3167 12.6919C53.075 12.4502 53.075 12.0502 53.3167 11.8086C53.5583 11.5669 53.9583 11.5669 54.2 11.8086L55.0083 12.6169L57.9 9.72523C58.1417 9.48356 58.5417 9.48356 58.7833 9.72523C59.025 9.96689 59.025 10.3669 58.7833 10.6086Z" fill="#FBA457"/>
<path d="M33.9583 1.6665H30.0417C29.175 1.6665 28.4667 2.3665 28.4667 3.23317V4.0165C28.4667 4.88317 29.1667 5.58317 30.0333 5.58317H33.9583C34.825 5.58317 35.525 4.88317 35.525 4.0165V3.23317C35.5333 2.3665 34.825 1.6665 33.9583 1.6665Z" fill="#FBA457"/>
<path d="M36.3667 4.01689C36.3667 5.34189 35.2833 6.42523 33.9583 6.42523H30.0417C28.7167 6.42523 27.6333 5.34189 27.6333 4.01689C27.6333 3.55023 27.1333 3.25856 26.7167 3.47523C25.5417 4.10023 24.7417 5.34189 24.7417 6.76689V14.6086C24.7417 16.6586 26.4167 18.3336 28.4667 18.3336H35.5333C37.5833 18.3336 39.2583 16.6586 39.2583 14.6086V6.76689C39.2583 5.34189 38.4583 4.10023 37.2833 3.47523C36.8667 3.25856 36.3667 3.55023 36.3667 4.01689ZM34.7833 10.6086L31.45 13.9419C31.325 14.0669 31.1667 14.1252 31.0083 14.1252C30.85 14.1252 30.6917 14.0669 30.5667 13.9419L29.3167 12.6919C29.075 12.4502 29.075 12.0502 29.3167 11.8086C29.5583 11.5669 29.9583 11.5669 30.2 11.8086L31.0083 12.6169L33.9 9.72523C34.1417 9.48356 34.5417 9.48356 34.7833 9.72523C35.025 9.96689 35.025 10.3669 34.7833 10.6086Z" fill="#FBA457"/>
</svg>
