<svg width="97" height="89" viewBox="0 0 97 89" fill="none" xmlns="http://www.w3.org/2000/svg">
<path d="M88.8011 87.9995H8.19891C4.23462 87.9995 1 85.0895 1 81.5381V37.7666C1 33.7155 3.33946 29.9548 7.18339 27.828L41.8164 8.68008C46.0063 6.36423 51.3021 6.37098 55.4845 8.70033L89.8467 27.8213C93.6681 29.9481 96 33.702 96 37.7396V81.5314C96 85.0895 92.7579 87.9928 88.8011 87.9928V87.9995Z" fill="#FBA457" stroke="#FBA457" stroke-width="0.75" stroke-linecap="round" stroke-linejoin="round"/>
<path d="M89.3914 84.2753H5.13049C8.18947 69.4456 10.6321 36.608 8.62539 2.50704C21.5603 2.50704 74.6 1.0019 74.6 1.0019C78.9067 0.85407 89.0156 9.3877 89.0156 12.0956C89.0156 40.1827 89.3914 84.2821 89.3914 84.2821V84.2753Z" fill="white" stroke="#FBA457" stroke-width="0.75" stroke-miterlimit="10"/>
<path d="M1.82605 84.3435L42.5505 59.763C46.3823 57.7548 51.1193 57.7548 54.9511 59.763L96 83.448C95.306 85.558 92.666 88.0004 89.166 88.0004H8.33563C4.89604 88.0004 2.76138 86.1686 1.82605 84.3435Z" fill="#FFD6B2" stroke="#FBA457" stroke-width="0.75" stroke-linecap="round" stroke-linejoin="round"/>
<path d="M55.5217 60.0182L96 38.1797V81.5843C96 82.2993 95.8956 82.9667 95.6123 83.5387L55.5217 60.0182Z" fill="#FFD6B2" stroke="#FBA457" stroke-width="0.75" stroke-linecap="round" stroke-linejoin="round"/>
<path d="M89.3478 12.8974C89.3478 8.87422 78.4818 8.74588 78.4818 8.74588C79.5106 3.97834 76.9866 1.02028 74.5217 1.02028C74.5217 1.02028 77.8156 0.46203 83.7446 5.20391C90.2583 10.395 89.3478 12.891 89.3478 12.891V12.8974Z" fill="#CBEEE1" stroke="#FBA457" stroke-width="0.75" stroke-miterlimit="10"/>
<path d="M43.3576 9.92285H20.5989C18.8994 9.92285 17.5217 11.1851 17.5217 12.7421V13.0523C17.5217 14.6093 18.8994 15.8716 20.5989 15.8716H43.3576C45.0571 15.8716 46.4348 14.6093 46.4348 13.0523V12.7421C46.4348 11.1851 45.0571 9.92285 43.3576 9.92285Z" fill="#83BAA0"/>
<path d="M79.2335 25.0207C79.2335 25.0207 56.5602 25.0207 49.3261 25.2795C42.092 25.5383 19.4187 25.5383 19.4187 25.5383C18.3724 25.5383 17.5217 24.8165 17.5217 23.938C17.5217 23.0596 18.3724 22.3378 19.4187 22.3378C19.4187 22.3378 41.6855 22.0791 49.3261 22.0791C56.9666 22.0791 79.2335 21.8203 79.2335 21.8203C80.2798 21.8203 81.1304 22.5421 81.1304 23.1618V23.6725C81.1304 24.8097 80.2798 25.0139 79.2335 25.0139V25.0207Z" fill="#CBEEE1"/>
<path d="M79.2335 33.2004C79.2335 33.2004 56.5602 33.2004 49.3261 33.4592C42.092 33.718 19.4187 33.7179 19.4187 33.7179C18.3724 33.7179 17.5217 32.9962 17.5217 32.1177C17.5217 31.2393 18.3724 30.5175 19.4187 30.5175C19.4187 30.5175 41.6855 30.2588 49.3261 30.2588C56.9666 30.2588 79.2335 30 79.2335 30C80.2798 30 81.1304 30.7218 81.1304 31.6002C81.1304 32.4786 80.2798 33.2004 79.2335 33.2004Z" fill="#CBEEE1"/>
<path d="M79.2335 41.3801C79.2335 41.3801 56.5602 41.3801 49.3261 41.6389C42.092 41.8976 19.4187 41.8976 19.4187 41.8976C18.3724 41.8976 17.5217 41.1758 17.5217 40.2974C17.5217 39.419 18.3724 38.6972 19.4187 38.6972C19.4187 38.6972 41.6855 38.4384 49.3261 38.4384C56.9666 38.4384 79.2335 38.1797 79.2335 38.1797C80.2798 38.1797 81.1304 38.9015 81.1304 39.7799C81.1304 40.6583 80.2798 41.3801 79.2335 41.3801Z" fill="#CBEEE1"/>
<path d="M57.7406 50.5424C57.7406 50.5424 42.3195 50.2643 35.0584 50.5424C27.7974 50.8205 19.4258 50.8205 19.4258 50.8205C18.3755 50.8205 17.5217 50.0447 17.5217 49.1006C17.5217 48.1564 18.3755 47.3807 19.4258 47.3807C27.3894 47.2855 16.2373 47.1025 38.2998 47.1025C45.9688 47.1025 57.7481 47.1025 57.7481 47.1025C58.7984 47.1025 59.6522 47.8783 59.6522 48.8225C59.6522 49.7666 58.7984 50.5424 57.7481 50.5424H57.7406Z" fill="#CBEEE1"/>
<path d="M1 38.1797L42.3043 59.6123L1.71163 84.2823C1.27716 83.5086 1.03745 82.5584 1 81.4386V38.1797Z" fill="#FFD6B2" stroke="#FBA457" stroke-width="0.75" stroke-linecap="round" stroke-linejoin="round"/>
</svg>
