<svg width="93" height="88" viewBox="0 0 93 88" fill="none" xmlns="http://www.w3.org/2000/svg">
<path d="M85.8837 5.5791H19.3163C15.3861 5.5791 12.2 9.21359 12.2 13.697V79.8823C12.2 84.3657 15.3861 88.0002 19.3163 88.0002H85.8837C89.8139 88.0002 93 84.3657 93 79.8823V13.697C93 9.21359 89.8139 5.5791 85.8837 5.5791Z" fill="#CBEEE1"/>
<path d="M78.6698 1H8.13026C4.19233 1 1 4.61851 1 9.08217V72.5915C1 77.0552 4.19233 80.6737 8.13026 80.6737H78.6698C82.6077 80.6737 85.8 77.0552 85.8 72.5915V9.08217C85.8 4.61851 82.6077 1 78.6698 1Z" fill="white" stroke="#1DBF73" stroke-width="0.75" stroke-miterlimit="10"/>
<path d="M76.2801 23.8945H11.3198C9.15494 23.8945 7.39996 25.8625 7.39996 28.2901V62.541C7.39996 64.9687 9.15494 66.9366 11.3198 66.9366H76.2801C78.445 66.9366 80.2 64.9687 80.2 62.541V28.2901C80.2 25.8625 78.445 23.8945 76.2801 23.8945Z" fill="#CBEEE1"/>
<path d="M15.1463 43.6529C15.9393 43.6529 16.5821 42.92 16.5821 42.0159C16.5821 41.1118 15.9393 40.3789 15.1463 40.3789C14.3533 40.3789 13.7105 41.1118 13.7105 42.0159C13.7105 42.92 14.3533 43.6529 15.1463 43.6529Z" fill="#0E9347"/>
<path d="M15.1463 51.3511C15.9393 51.3511 16.5821 50.6182 16.5821 49.7141C16.5821 48.8101 15.9393 48.0771 15.1463 48.0771C14.3533 48.0771 13.7105 48.8101 13.7105 49.7141C13.7105 50.6182 14.3533 51.3511 15.1463 51.3511Z" fill="#0E9347"/>
<path d="M15.1463 58.6939C15.9393 58.6939 16.5821 57.961 16.5821 57.0569C16.5821 56.1528 15.9393 55.4199 15.1463 55.4199C14.3533 55.4199 13.7105 56.1528 13.7105 57.0569C13.7105 57.961 14.3533 58.6939 15.1463 58.6939Z" fill="#0E9347"/>
<path d="M27.1666 29.3896H16.4334C14.979 29.3896 13.8 30.8247 13.8 32.5949C13.8 34.3651 14.979 35.8002 16.4334 35.8002H27.1666C28.621 35.8002 29.8 34.3651 29.8 32.5949C29.8 30.8247 28.621 29.3896 27.1666 29.3896Z" fill="#1DBF73"/>
<path d="M35.0858 9.24219H10.1141C8.61514 9.24219 7.39996 10.6772 7.39996 12.4475C7.39996 14.2177 8.61514 15.6527 10.1141 15.6527H35.0858C36.5848 15.6527 37.8 14.2177 37.8 12.4475C37.8 10.6772 36.5848 9.24219 35.0858 9.24219Z" fill="#1DBF73"/>
<path d="M73.1586 40.3789H20.0415C19.2454 40.3789 18.6 41.1989 18.6 42.2105C18.6 43.222 19.2454 44.0421 20.0415 44.0421H73.1586C73.9547 44.0421 74.6 43.222 74.6 42.2105C74.6 41.1989 73.9547 40.3789 73.1586 40.3789Z" fill="#0E9347"/>
<path d="M53.1812 47.7051H20.0189C19.2353 47.7051 18.6 48.5251 18.6 49.5367C18.6 50.5482 19.2353 51.3682 20.0189 51.3682H53.1812C53.9648 51.3682 54.6 50.5482 54.6 49.5367C54.6 48.5251 53.9648 47.7051 53.1812 47.7051Z" fill="#0E9347"/>
<path d="M24.2 44.0421C25.0836 44.0421 25.8 43.222 25.8 42.2105C25.8 41.1989 25.0836 40.3789 24.2 40.3789C23.3163 40.3789 22.6 41.1989 22.6 42.2105C22.6 43.222 23.3163 44.0421 24.2 44.0421Z" fill="#0E9347"/>
<path d="M24.2 51.3682C25.0836 51.3682 25.8 50.5482 25.8 49.5367C25.8 48.5251 25.0836 47.7051 24.2 47.7051C23.3163 47.7051 22.6 48.5251 22.6 49.5367C22.6 50.5482 23.3163 51.3682 24.2 51.3682Z" fill="#0E9347"/>
<path d="M53.1812 55.0312H20.0189C19.2353 55.0312 18.6 55.8513 18.6 56.8628C18.6 57.8744 19.2353 58.6944 20.0189 58.6944H53.1812C53.9648 58.6944 54.6 57.8744 54.6 56.8628C54.6 55.8513 53.9648 55.0312 53.1812 55.0312Z" fill="#0E9347"/>
<path d="M24.2 58.6944C25.0836 58.6944 25.8 57.8744 25.8 56.8628C25.8 55.8513 25.0836 55.0312 24.2 55.0312C23.3163 55.0312 22.6 55.8513 22.6 56.8628C22.6 57.8744 23.3163 58.6944 24.2 58.6944Z" fill="#0E9347"/>
</svg>
