<svg width="116" height="100" viewBox="0 0 116 100" fill="none" xmlns="http://www.w3.org/2000/svg">
<path d="M76.2133 96.9924C78.1601 96.3725 79.3684 95.4813 80.1889 92.5755C81.0094 89.6696 80.1367 70.5453 79.2081 64.35C78.2794 58.1548 76.5937 51.9053 75.7732 50.4872C74.9527 49.0692 72.0325 46.8956 72.0325 46.8956L63.9916 42.808C63.9916 42.808 58.7032 46.7251 51.77 47.2404C41.4206 48.0114 38.9069 41.5488 38.9069 41.5488C38.9069 41.5488 31.1719 43.7379 27.0098 46.7019C22.8514 49.6658 20.237 62.0641 18.8459 67.2249C17.4548 72.3857 15.9107 85.6247 16.6007 88.9684C18.1596 96.1206 20.0095 98.9025 24.0187 98.6003C25.7343 98.4918 27.6699 97.8719 30.482 96.4073L67.6205 96.3531C68.0083 97.3605 73.2371 97.93 76.217 96.9808L76.2133 96.9924Z" fill="#CBEEE1"/>
<path d="M62.5817 5.22163C62.5817 5.22163 65.8338 3.85782 67.583 5.33399C69.5186 6.96901 72.1516 11.692 71.5363 19.3673C70.9545 26.6048 73.8299 32.1685 71.7153 37.3525C70.5107 40.3049 66.8296 42.5017 65.0134 43.8694C62.6861 45.6245 57.7296 39.2549 57.7296 39.2549V4.83418L62.5854 5.22163H62.5817Z" fill="#FBA457"/>
<path d="M97.4974 76.9961C95.1366 76.2871 94.0551 73.7764 94.3012 71.4053L104.315 66.8799V71.1379L99.7426 75.6788L97.4974 76.9961Z" fill="#EDB095"/>
<path d="M86.872 73.5645L71.5363 81.0693C71.5363 81.0693 72.8565 97.4428 76.2168 96.9933C80.2894 96.4509 91.5936 81.6078 91.5936 81.6078L86.8757 73.5645H86.872Z" fill="#CBEEE1"/>
<path d="M64.3793 41.9566C64.3793 41.9566 62.0111 40.2712 59.3109 39.7637L61.2428 42.9562L64.3793 41.9566Z" fill="#088D73"/>
<path d="M42.7743 38.7324L47.7495 37.7754C47.7495 37.7754 45.8064 40.8943 44.6801 40.7355C43.0428 39.0888 42.7743 38.7363 42.7743 38.7363V38.7324Z" fill="#088D73"/>
<path d="M1 96.3652H19.2038" stroke="#222222" stroke-width="0.75" stroke-linecap="round" stroke-linejoin="round"/>
<path d="M77.5967 96.4512H100.104" stroke="#222222" stroke-width="0.75" stroke-linecap="round" stroke-linejoin="round"/>
<path d="M1 99H100.104" stroke="#222222" stroke-width="0.75" stroke-linecap="round" stroke-linejoin="round"/>
<path d="M52.3778 49.3538C59.6504 49.5088 62.5818 43.7165 62.5818 43.7165C60.7394 42.3217 59.4564 38.6797 59.9935 36.448C59.9935 36.448 59.9898 36.3705 55.988 35.2082C51.99 34.0458 48.9877 31.1826 48.9877 31.1826L48.2082 36.0296C48.2082 36.0296 47.3243 39.811 44.1841 40.7835C44.1841 40.7835 45.1015 49.1989 52.3741 49.3538H52.3778Z" fill="#FFC5A9"/>
<path d="M66.3038 43.9874C66.4977 45.1924 65.6288 50.2641 59.1245 52.7282C52.6202 55.1924 46.1831 51.7596 44.0796 49.2373C44.0796 49.2373 39.9772 44.7933 38.8993 41.5427C38.8434 40.729 42.338 38.0363 43.3002 38.9003C44.2624 39.7643 48.8646 46.1533 54.5633 45.7271C60.262 45.3009 61.7128 41.7713 63.2419 41.655C64.853 41.5349 66.3001 43.9874 66.3001 43.9874H66.3038Z" fill="#C4C4C4"/>
<path d="M64.6852 8.15923C64.6852 8.15923 64.8381 5.76094 55.6075 7.76403C46.377 9.76326 46.7835 21.6114 47.1602 27.0472C47.5369 32.4831 51.934 33.9825 51.934 33.9825C51.934 33.9825 59.6653 37.7214 62.0932 37.3223C64.5211 36.9232 65.5504 35.296 66.4828 33.3432C67.4152 31.3905 68.2804 28.7094 68.4035 26.5784C68.5229 24.4436 67.9522 22.9171 68.1051 22.2468C68.2581 21.5765 69.1084 19.9686 69.2016 18.2522C69.2949 16.5358 68.5713 12.7117 67.3257 10.7861C66.08 8.86051 64.6926 8.15923 64.6926 8.15923H64.6852Z" fill="#FFDDC5"/>
<path d="M69.1979 18.2514C69.1979 18.2514 68.8361 17.7206 67.7583 17.9608C66.6805 18.2011 65.7518 19.158 65.5467 19.406C65.3416 19.654 65.3043 19.9523 65.6996 19.8206C66.0949 19.6888 66.867 18.6699 67.8292 18.4684C68.7914 18.2708 69.0674 18.635 69.142 18.542C69.2165 18.449 69.3098 18.3405 69.2016 18.2475L69.1979 18.2514Z" fill="#BF8113"/>
<path d="M55.1862 18.8532C55.1638 18.551 58.1623 18.1713 60.1539 18.4773C61.5785 18.6943 62.1715 19.6629 62.1715 19.6629C62.3804 20.0078 62.2872 20.5502 62.041 20.3255C61.7949 20.1007 61.8806 19.6397 60.4933 19.0856C59.1096 18.5316 55.2048 19.1515 55.1862 18.8493V18.8532Z" fill="#BF8113"/>
<path d="M64.8792 20.5195C64.8792 20.5195 65.2708 21.6896 65.6102 23.4796C65.9495 25.2696 66.4754 28.8264 65.7444 29.2564C65.0172 29.6865 64.2302 29.2022 63.6261 29.1402C63.0219 29.0782 62.5035 29.3456 62.097 28.9814C61.6904 28.6172 61.9515 27.7919 62.4214 27.4509C62.8876 27.1061 63.6223 27.1565 63.6223 27.1565" stroke="#222222" stroke-width="0.75" stroke-miterlimit="10" stroke-linecap="round"/>
<path d="M61.2092 22.2243C61.2913 22.1274 61.3286 20.6629 59.971 20.1398C58.6135 19.6207 56.5212 20.1166 56.4951 20.229C56.469 20.3413 58.6694 19.9384 59.7733 20.4111C61.0824 20.9574 61.1272 22.3173 61.2092 22.2204V22.2243Z" fill="#031001"/>
<path d="M65.7518 22.0532C65.6623 22.0609 65.6846 21.2318 66.2814 20.6467C66.9601 19.9803 68.1946 20.1818 68.2058 20.3135C68.217 20.4453 67.1615 20.174 66.4678 20.7978C65.9084 21.2976 65.8413 22.0493 65.7518 22.0532Z" fill="#031001"/>
<path d="M91.6832 81.552C91.6832 81.552 97.7548 78.464 97.6541 77.0615C97.6541 77.0615 96.3525 76.5578 95.1591 74.0975C93.9619 71.6372 94.3199 70.3897 94.3199 70.3897C92.7349 70.0177 86.8721 73.5628 86.8721 73.5628L86.7789 73.6171C86.9243 76.8716 88.528 79.5334 91.5937 81.6062L91.6869 81.552H91.6832Z" fill="#C4C4C4"/>
<path d="M61.019 22.878C61.019 22.878 60.4559 23.1764 59.0349 23.0485C57.614 22.9206 55.9879 21.0454 55.9879 21.0454C55.9879 21.0454 58.6993 20.7509 59.7137 21.1771C60.7281 21.6033 61.019 22.878 61.019 22.878Z" fill="white"/>
<path d="M60.9296 23.0374C61.1384 23.0219 61.3212 21.72 59.9785 21.0304C58.6396 20.3407 55.753 20.7785 55.5255 21.0498C55.298 21.321 57.9236 21.135 59.0723 21.4333C60.4596 21.7588 60.717 23.0529 60.9258 23.0374H60.9296Z" fill="#031001"/>
<path d="M60.2285 21.775C60.2285 21.775 60.1837 23.2628 58.9306 23.0497C57.6775 22.8366 58.0505 21.1357 58.0505 21.1357L60.2285 21.7789V21.775Z" fill="#031001"/>
<path d="M65.8413 22.7972C65.8413 22.7972 66.3522 21.4101 67.2063 21.0769C68.0641 20.7437 68.3475 20.9297 68.3475 20.9297C68.3475 20.9297 67.7508 22.77 66.9117 22.9483C66.0725 23.1265 65.8413 22.7972 65.8413 22.7972Z" fill="white"/>
<path d="M65.7965 22.6922C65.7741 22.3784 66.2701 21.3827 66.9936 20.9216C67.4412 20.6388 67.9857 20.6194 68.2654 20.8247C68.6756 21.1231 67.8924 20.8635 67.0682 21.4485C66.244 22.0336 65.8226 23.1572 65.7927 22.6922H65.7965Z" fill="#031001"/>
<path d="M67.5383 20.9834C67.5383 20.9834 67.8031 22.6029 67.0311 22.909C66.468 23.1299 66.1771 22.6882 66.1099 22.5254C66.0428 22.3627 66.0838 22.1457 66.0838 22.1457L67.5383 20.9834Z" fill="#031001"/>
<path d="M45.6869 64.3096C45.6869 64.3096 45.9293 65.6346 45.4147 67.8896C45.0604 69.4355 36.4526 87.7501 30.4817 96.425" stroke="#C4C4C4" stroke-width="0.75" stroke-linecap="round" stroke-linejoin="round"/>
<path d="M18.6182 84.804C19.1403 82.305 21.8778 77.8648 25.8273 75.761C25.8273 75.761 31.4999 64.1415 33.2416 62.057C34.9795 59.9687 36.3222 59.3682 36.3222 59.3682" stroke="#C4C4C4" stroke-width="0.75" stroke-linecap="round" stroke-linejoin="round"/>
<path d="M30.4781 96.4195L67.6167 96.3652" stroke="#222222" stroke-width="0.75" stroke-linecap="round" stroke-linejoin="round"/>
<path d="M60.4969 31.5849C61.6568 31.4996 62.8465 31.2207 63.2717 31.1858C63.6969 31.1509 64.1631 31.5422 64.1631 31.5422C64.1631 31.5422 64.5696 31.1974 64.8418 31.2594C65.2036 31.3098 65.4945 32.0808 65.5281 31.9917C65.5281 31.9917 64.8642 33.1501 63.9057 33.309C62.3729 33.5105 60.7729 31.8135 60.4969 31.581V31.5849Z" fill="#C42C2C"/>
<path d="M65.7033 32.0838C65.4273 32.1071 65.2707 32.1381 64.9313 32.1691C64.5919 32.2001 64.4539 32.3977 64.2264 32.417C63.9989 32.4364 63.7565 32.1846 63.3239 32.0606C62.8913 31.9366 62.5855 32.0567 61.6717 31.987C60.758 31.9172 60.3291 31.5879 60.3291 31.5879" stroke="#222222" stroke-width="0.75" stroke-linecap="round" stroke-linejoin="round"/>
<path d="M115.91 43.9247L114.918 43.0878C114.773 42.9677 114.582 42.925 114.403 42.9793L96.1101 48.5353C95.7371 48.6476 95.4313 48.9188 95.2635 49.283L81.1025 80.1974C81.013 80.3911 81.0578 80.6274 81.2107 80.7708L82.1244 81.6309L96.1474 50.6507C96.3227 50.2671 96.6434 49.9804 97.035 49.8526L115.91 43.9247Z" fill="#C4C4C4"/>
<path d="M115.97 44.2469L100.261 74.4251C100.131 74.6769 99.9179 74.8707 99.6569 74.9714L82.4191 81.7052C82.2139 81.7866 82.0163 81.5657 82.1132 81.3604L96.1362 50.6863C96.319 50.2833 96.6583 49.9772 97.0686 49.8494L115.683 43.8905C115.891 43.8246 116.074 44.0532 115.97 44.2547V44.2469Z" fill="#1DBF73"/>
<path d="M102.141 60.9321C102.758 59.8221 102.75 58.6178 102.124 58.2423C101.498 57.8667 100.49 58.4621 99.8735 59.5722C99.2566 60.6822 99.264 61.8865 99.8901 62.262C100.516 62.6375 101.524 62.0421 102.141 60.9321Z" fill="#C4C4C4"/>
<path d="M112.836 47.906C113.203 47.1109 113.137 46.2857 112.689 46.063C112.242 45.8402 111.581 46.3042 111.215 47.0994C110.848 47.8945 110.914 48.7196 111.362 48.9424C111.81 49.1651 112.47 48.7011 112.836 47.906Z" fill="#C4C4C4"/>
<path d="M97.4975 76.9966C97.4975 76.9966 98.3813 76.9308 99.7911 76.0629C101.201 75.195 102.405 73.3391 102.95 73.1648C103.495 72.9904 105.214 72.6688 105.792 72.4829C106.37 72.2969 106.284 70.5999 106.031 70.4604C106.348 70.1388 106.236 69.5654 106.236 69.5654C106.534 68.9804 106.534 67.9962 106.37 67.4499C106.612 66.3147 106.56 65.0749 106.266 64.6642C106.266 64.6642 105.62 63.8041 104.83 62.8897C104.039 61.9753 103.472 60.6038 103.058 60.6193C102.644 60.6348 102.558 61.5879 102.797 62.3899C103.036 63.1919 104.479 65.2376 104.479 65.2376C104.479 65.2376 102.174 65.3849 101.223 65.3965C100.272 65.4081 99.8582 65.226 99.6606 65.6096C99.4629 65.9931 99.9776 66.6789 99.9776 66.6789C99.9776 66.6789 98.7879 66.4271 98.6872 67.0935C98.5865 67.7599 99.2951 68.2248 100.06 68.3953C100.824 68.5658 103.412 68.9377 103.659 69.1934C103.905 69.4492 103.953 70.1892 103.953 70.1892C103.953 70.1892 101.585 69.8599 101.026 70.0381C100.466 70.2163 100.328 70.9021 100.716 71.1152C101.104 71.3283 101.854 71.4058 101.854 71.4058L100.507 73.9745C100.097 74.7611 99.5226 75.443 98.8289 75.9699L97.4863 76.9927L97.4975 76.9966Z" fill="#FFDDC5"/>
<path d="M100.104 66.6895C101.943 66.8716 103.7 66.5422 104.315 66.8832C104.93 67.2241 105.423 68.3516 106.172 69.4674" stroke="#EDB095" stroke-width="0.75" stroke-linecap="round" stroke-linejoin="round"/>
<path d="M67.8403 59.3682C69.1867 63.1535 70.1116 65.2612 70.1116 68.8102C70.1116 74.3972 68.1014 74.9513 66.9788 81.6115C66.4082 85.0016 67.6203 96.3693 67.6203 96.3693" stroke="#C4C4C4" stroke-width="0.75" stroke-linecap="round" stroke-linejoin="round"/>
<path d="M80.2261 76.8154C80.2261 76.8154 77.2388 77.8964 75.6649 79.0432C73.8412 80.3722 69.336 85.9514 70.7905 91.1587" stroke="#C4C4C4" stroke-width="0.75" stroke-linecap="round" stroke-linejoin="round"/>
<path d="M47.0371 57.7441L49.5806 53.5365C51.1619 53.4822 53.437 52.781 55.9879 51.824C56.8606 52.2695 58.207 52.6066 58.6284 52.6066C59.0499 52.6066 59.6354 51.2505 59.6354 51.2505C60.5193 50.8166 60.5827 50.0998 60.7953 49.5845C61.4107 49.0072 61.5263 47.9146 61.1459 47.5194C60.8848 47.2482 57.0508 46.1246 57.0508 45.3381C57.0508 45.3381 61.0563 46.9654 61.3025 46.5121C61.5486 46.0588 61.7836 44.9468 61.0936 44.7802C60.4037 44.6136 56.3609 42.0138 55.7045 41.9325C55.0481 41.8511 54.7908 41.5373 53.4892 41.9325C52.1876 42.3277 46.7611 45.9115 45.3849 48.3718L41.0736 53.8852C41.0736 53.8852 41.7375 55.5512 43.5649 56.6477C45.3887 57.7441 47.0334 57.7441 47.0334 57.7441H47.0371Z" fill="#FFDDC5"/>
<path d="M60.6424 49.6314C60.4335 49.4764 56.939 48.1513 56.4728 47.791" stroke="#EDB095" stroke-width="0.75" stroke-linecap="round" stroke-linejoin="round"/>
<path d="M59.4565 51.229C59.4565 51.229 57.4575 50.4851 55.9955 49.7451" stroke="#EDB095" stroke-width="0.75" stroke-linecap="round" stroke-linejoin="round"/>
<path d="M45.7019 64.3122C45.7019 64.3122 48.3536 58.6632 47.8725 57.1987C46.3471 57.6133 43.7364 56.7958 42.2782 55.4823C40.82 54.1689 40.8685 53.394 40.8685 53.394C40.5701 53.3669 39.9435 53.7388 39.6153 54.0681C38.1496 55.5288 36.3408 59.3761 36.3408 59.3761C36.3408 59.3761 36.9413 62.0805 39.5519 63.4676C42.1626 64.8546 45.7056 64.3161 45.7056 64.3161L45.7019 64.3122Z" fill="#C4C4C4"/>
<path d="M65.8786 9.79051C66.2441 9.41081 66.5089 3.89745 63.0106 1.81687C60.2246 0.158599 51.5722 -1.6159 46.377 2.6615C40.585 7.43096 33.4989 20.484 34.5022 30.608C35.2145 37.7951 38.903 39.2558 41.0773 41.5572C42.5654 43.1264 46.8469 44.8389 49.286 40.9373C56.3348 29.6549 47.011 28.6281 50.0095 19.9222C51.5125 18.3608 53.1609 17.644 55.5143 15.2031C58.1137 12.5026 60.1202 10.2438 63.4954 9.73239C64.6814 9.55029 65.5168 10.1702 65.8823 9.78664L65.8786 9.79051Z" fill="#FBA457"/>
<path d="M50.0096 19.8365C50.0096 19.8365 47.7532 16.7795 45.6311 18.9802C43.6619 21.0259 45.7766 25.9233 47.164 27.0469C48.5513 28.1704 50.2744 26.7911 50.2744 26.7911L50.0096 19.8365Z" fill="#FFDDC5"/>
<path d="M65.0321 9.17048C65.0321 9.17048 62.9585 4.83496 57.726 4.83496" stroke="#BE8115" stroke-miterlimit="10" stroke-linecap="round"/>
<path d="M64.1555 9.17102C57.2783 5.715 50.2705 8.08617 45.3811 17.1369" stroke="#BE8115" stroke-miterlimit="10" stroke-linecap="round"/>
<path d="M56.9278 21.8758L49.3196 18.8809" stroke="#878383" stroke-width="0.75" stroke-linecap="round" stroke-linejoin="round"/>
<path d="M62.4858 20.2626L58.7486 20.0937C57.7938 20.0506 56.9861 20.8197 56.9446 21.8117L56.8662 23.6851C56.8247 24.6771 57.565 25.5162 58.5199 25.5593L62.257 25.7281C63.2118 25.7713 64.0195 25.0021 64.0611 24.0102L64.1395 22.1367C64.181 21.1448 63.4406 20.3057 62.4858 20.2626Z" stroke="#878383" stroke-width="0.75" stroke-linecap="round" stroke-linejoin="round"/>
<path d="M70.1703 20.1869L68.0689 20.092C67.1593 20.0509 66.3899 20.7836 66.3504 21.7285L66.2648 23.7723C66.2253 24.7172 66.9305 25.5165 67.8401 25.5576L69.9416 25.6525C70.8511 25.6936 71.6205 24.9609 71.6601 24.016L71.7456 21.9722C71.7852 21.0273 71.0799 20.228 70.1703 20.1869Z" stroke="#878383" stroke-width="0.75" stroke-linecap="round" stroke-linejoin="round"/>
<path d="M64.1631 22.2581C64.1631 22.2581 65.5467 21.2972 66.3225 22.2581" stroke="#878383" stroke-width="0.75" stroke-linecap="round" stroke-linejoin="round"/>
<path d="M71.7115 22.2973L68.4221 21.2783" stroke="#878383" stroke-width="0.75" stroke-linecap="round" stroke-linejoin="round"/>
<path d="M46.847 19.1328C46.847 19.1328 49.0512 19.3692 49.3197 22.7709C49.3197 22.7709 48.0032 23.1971 48.6633 24.6384" stroke="#EDB095" stroke-width="0.75" stroke-linecap="round" stroke-linejoin="round"/>
</svg>
