<svg width="32" height="67" viewBox="0 0 32 67" fill="none" xmlns="http://www.w3.org/2000/svg">
<ellipse cx="2.27736" cy="2.46712" rx="1.91713" ry="1.90462" fill="#D0CDE1"/>
<ellipse cx="2.27733" cy="9.32357" rx="1.91713" ry="1.90462" fill="#D0CDE1"/>
<ellipse cx="2.27733" cy="16.181" rx="1.91713" ry="1.90462" fill="#D0CDE1"/>
<ellipse cx="2.27733" cy="23.0365" rx="1.91713" ry="1.90462" fill="#D0CDE1"/>
<ellipse cx="2.27733" cy="29.8929" rx="1.91713" ry="1.90462" fill="#D0CDE1"/>
<ellipse cx="2.27733" cy="36.7503" rx="1.91713" ry="1.90462" fill="#D0CDE1"/>
<ellipse cx="2.27733" cy="43.6068" rx="1.91713" ry="1.90462" fill="#D0CDE1"/>
<ellipse cx="2.27733" cy="50.4632" rx="1.91713" ry="1.90462" fill="#D0CDE1"/>
<ellipse cx="2.27733" cy="57.3197" rx="1.91713" ry="1.90462" fill="#D0CDE1"/>
<ellipse cx="2.27733" cy="64.1761" rx="1.91713" ry="1.90462" fill="#D0CDE1"/>
<ellipse cx="9.17899" cy="2.46712" rx="1.91713" ry="1.90462" fill="#D0CDE1"/>
<ellipse cx="9.17899" cy="9.32357" rx="1.91713" ry="1.90462" fill="#D0CDE1"/>
<ellipse cx="9.17899" cy="16.181" rx="1.91713" ry="1.90462" fill="#D0CDE1"/>
<ellipse cx="9.17899" cy="23.0365" rx="1.91713" ry="1.90462" fill="#D0CDE1"/>
<ellipse cx="9.17899" cy="29.8929" rx="1.91713" ry="1.90462" fill="#D0CDE1"/>
<ellipse cx="9.17899" cy="36.7503" rx="1.91713" ry="1.90462" fill="#D0CDE1"/>
<ellipse cx="9.17899" cy="43.6068" rx="1.91713" ry="1.90462" fill="#D0CDE1"/>
<ellipse cx="9.17899" cy="50.4632" rx="1.91713" ry="1.90462" fill="#D0CDE1"/>
<ellipse cx="9.17899" cy="57.3197" rx="1.91713" ry="1.90462" fill="#D0CDE1"/>
<ellipse cx="9.17899" cy="64.1761" rx="1.91713" ry="1.90462" fill="#D0CDE1"/>
<ellipse cx="16.0807" cy="2.46712" rx="1.91713" ry="1.90462" fill="#D0CDE1"/>
<ellipse cx="16.0807" cy="9.32357" rx="1.91713" ry="1.90462" fill="#D0CDE1"/>
<ellipse cx="16.0807" cy="16.181" rx="1.91713" ry="1.90462" fill="#D0CDE1"/>
<ellipse cx="16.0807" cy="23.0365" rx="1.91713" ry="1.90462" fill="#D0CDE1"/>
<ellipse cx="16.0807" cy="29.8929" rx="1.91713" ry="1.90462" fill="#D0CDE1"/>
<ellipse cx="16.0807" cy="36.7503" rx="1.91713" ry="1.90462" fill="#D0CDE1"/>
<ellipse cx="16.0807" cy="43.6068" rx="1.91713" ry="1.90462" fill="#D0CDE1"/>
<ellipse cx="16.0807" cy="50.4632" rx="1.91713" ry="1.90462" fill="#D0CDE1"/>
<ellipse cx="16.0807" cy="57.3197" rx="1.91713" ry="1.90462" fill="#D0CDE1"/>
<ellipse cx="16.0807" cy="64.1761" rx="1.91713" ry="1.90462" fill="#D0CDE1"/>
<ellipse cx="22.9823" cy="2.46712" rx="1.91713" ry="1.90462" fill="#D0CDE1"/>
<ellipse cx="22.9823" cy="9.32357" rx="1.91713" ry="1.90462" fill="#D0CDE1"/>
<ellipse cx="22.9823" cy="16.181" rx="1.91713" ry="1.90462" fill="#D0CDE1"/>
<ellipse cx="22.9823" cy="23.0365" rx="1.91713" ry="1.90462" fill="#D0CDE1"/>
<ellipse cx="22.9823" cy="29.8929" rx="1.91713" ry="1.90462" fill="#D0CDE1"/>
<ellipse cx="22.9823" cy="36.7503" rx="1.91713" ry="1.90462" fill="#D0CDE1"/>
<ellipse cx="22.9823" cy="43.6068" rx="1.91713" ry="1.90462" fill="#D0CDE1"/>
<ellipse cx="22.9823" cy="50.4632" rx="1.91713" ry="1.90462" fill="#D0CDE1"/>
<ellipse cx="22.9823" cy="57.3197" rx="1.91713" ry="1.90462" fill="#D0CDE1"/>
<ellipse cx="22.9823" cy="64.1761" rx="1.91713" ry="1.90462" fill="#D0CDE1"/>
<ellipse cx="29.884" cy="2.46712" rx="1.91713" ry="1.90462" fill="#D0CDE1"/>
<ellipse cx="29.884" cy="9.32357" rx="1.91713" ry="1.90462" fill="#D0CDE1"/>
<ellipse cx="29.884" cy="16.181" rx="1.91713" ry="1.90462" fill="#D0CDE1"/>
<ellipse cx="29.884" cy="23.0365" rx="1.91713" ry="1.90462" fill="#D0CDE1"/>
<ellipse cx="29.884" cy="29.8929" rx="1.91713" ry="1.90462" fill="#D0CDE1"/>
<ellipse cx="29.884" cy="36.7503" rx="1.91713" ry="1.90462" fill="#D0CDE1"/>
<ellipse cx="29.884" cy="43.6068" rx="1.91713" ry="1.90462" fill="#D0CDE1"/>
<ellipse cx="29.884" cy="50.4632" rx="1.91713" ry="1.90462" fill="#D0CDE1"/>
<ellipse cx="29.884" cy="57.3197" rx="1.91713" ry="1.90462" fill="#D0CDE1"/>
<ellipse cx="29.884" cy="64.1761" rx="1.91713" ry="1.90462" fill="#D0CDE1"/>
</svg>
