<svg width="105" height="67" viewBox="0 0 105 67" fill="none" xmlns="http://www.w3.org/2000/svg">
<path d="M99.0583 0H5.94171C2.6602 0 0 2.59236 0 5.79019V61.2098C0 64.4076 2.6602 67 5.94171 67H99.0583C102.34 67 105 64.4076 105 61.2098V5.79019C105 2.59236 102.34 0 99.0583 0Z" fill="#FFD6B2"/>
<path d="M41.888 50.8271H6.51195C5.70996 50.8271 5.05981 51.4225 5.05981 52.1569V52.4536C5.05981 53.188 5.70996 53.7833 6.51195 53.7833H41.888C42.69 53.7833 43.3401 53.188 43.3401 52.4536V52.1569C43.3401 51.4225 42.69 50.8271 41.888 50.8271Z" fill="#E7A52E"/>
<path d="M35.1133 56.5254H6.51195C5.70996 56.5254 5.05981 57.1208 5.05981 57.8552V58.1518C5.05981 58.8862 5.70996 59.4816 6.51195 59.4816H35.1133C35.9153 59.4816 36.5654 58.8862 36.5654 58.1518V57.8552C36.5654 57.1208 35.9153 56.5254 35.1133 56.5254Z" fill="#E7A52E"/>
<path d="M97.1082 55.9883H83.3856C82.4602 55.9883 81.71 56.6752 81.71 57.5226V59.5991C81.71 60.4465 82.4602 61.1335 83.3856 61.1335H97.1082C98.0335 61.1335 98.7837 60.4465 98.7837 59.5991V57.5226C98.7837 56.6752 98.0335 55.9883 97.1082 55.9883Z" fill="#E28424"/>
<path d="M7.38354 37.1675C7.38354 37.1675 17.2971 23.5629 24.016 23.5629C31.1649 23.5629 35.6777 29.8896 42.0726 29.8896C49.5064 29.8896 53.3378 18.2797 61.9165 18.2797C70.4952 18.2797 74.7455 24.9387 82.4641 24.9387C90.1827 24.9387 95.9242 12.71 95.9242 12.71" stroke="#E28424" stroke-width="0.75" stroke-linecap="round" stroke-linejoin="round"/>
<path d="M8.09877 38.6817C9.29578 38.6817 10.2662 37.7933 10.2662 36.6973C10.2662 35.6013 9.29578 34.7129 8.09877 34.7129C6.90176 34.7129 5.9314 35.6013 5.9314 36.6973C5.9314 37.7933 6.90176 38.6817 8.09877 38.6817Z" fill="#FBF9ED"/>
<path d="M24.2007 25.5978C25.3977 25.5978 26.3681 24.7093 26.3681 23.6133C26.3681 22.5174 25.3977 21.6289 24.2007 21.6289C23.0037 21.6289 22.0333 22.5174 22.0333 23.6133C22.0333 24.7093 23.0037 25.5978 24.2007 25.5978Z" fill="#FBF9ED"/>
<path d="M42.1342 31.5821C43.3312 31.5821 44.3016 30.6937 44.3016 29.5977C44.3016 28.5017 43.3312 27.6133 42.1342 27.6133C40.9372 27.6133 39.9668 28.5017 39.9668 29.5977C39.9668 30.6937 40.9372 31.5821 42.1342 31.5821Z" fill="#FBF9ED"/>
<path d="M61.6657 20.2892C62.8627 20.2892 63.833 19.4007 63.833 18.3047C63.833 17.2088 62.8627 16.3203 61.6657 16.3203C60.4687 16.3203 59.4983 17.2088 59.4983 18.3047C59.4983 19.4007 60.4687 20.2892 61.6657 20.2892Z" fill="#FBF9ED"/>
<path d="M81.7105 26.923C82.9075 26.923 83.8778 26.0345 83.8778 24.9385C83.8778 23.8426 82.9075 22.9541 81.7105 22.9541C80.5135 22.9541 79.5431 23.8426 79.5431 24.9385C79.5431 26.0345 80.5135 26.923 81.7105 26.923Z" fill="#FBF9ED"/>
<path d="M95.9246 14.6935C97.1217 14.6935 98.092 13.805 98.092 12.709C98.092 11.6131 97.1217 10.7246 95.9246 10.7246C94.7276 10.7246 93.7573 11.6131 93.7573 12.709C93.7573 13.805 94.7276 14.6935 95.9246 14.6935Z" fill="#FBF9ED"/>
</svg>
