<svg width="25" height="25" viewBox="0 0 25 25" fill="none" xmlns="http://www.w3.org/2000/svg">
<path fill-rule="evenodd" clip-rule="evenodd" d="M12.5 0C5.6075 0 0 5.6075 0 12.5C0 14.66 0.53734 17.6168 2.5 20C3.02664 20.6395 3.38755 20.9422 4 21.5C4.86571 22.2885 5 22.5 6.345 23.3688C7.69 24.2375 10.3415 24.9999 12.5 25C19.3925 25 25 19.3925 25 12.5C25 5.6075 19.3925 0 12.5 0ZM6.61625 11.6163C6.73207 11.4998 6.86977 11.4073 7.02143 11.3443C7.1731 11.2812 7.33574 11.2487 7.5 11.2487C7.66426 11.2487 7.8269 11.2812 7.97857 11.3443C8.13023 11.4073 8.26793 11.4998 8.38375 11.6163C8.50023 11.7321 8.59267 11.8698 8.65574 12.0214C8.71882 12.1731 8.75129 12.3357 8.75129 12.5C8.75129 12.6643 8.71882 12.8269 8.65574 12.9786C8.59267 13.1302 8.50023 13.2679 8.38375 13.3838C8.26793 13.5002 8.13023 13.5927 7.97857 13.6557C7.8269 13.7188 7.66426 13.7513 7.5 13.7513C7.33574 13.7513 7.1731 13.7188 7.02143 13.6557C6.86977 13.5927 6.73207 13.5002 6.61625 13.3838C6.49977 13.2679 6.40733 13.1302 6.34426 12.9786C6.28118 12.8269 6.24871 12.6643 6.24871 12.5C6.24871 12.3357 6.28118 12.1731 6.34426 12.0214C6.40733 11.8698 6.49977 11.7321 6.61625 11.6163ZM11.6163 11.6163C11.7321 11.4998 11.8698 11.4073 12.0214 11.3443C12.1731 11.2812 12.3357 11.2487 12.5 11.2487C12.6643 11.2487 12.8269 11.2812 12.9786 11.3443C13.1302 11.4073 13.2679 11.4998 13.3837 11.6163C13.5002 11.7321 13.5927 11.8698 13.6557 12.0214C13.7188 12.1731 13.7513 12.3357 13.7513 12.5C13.7513 12.6643 13.7188 12.8269 13.6557 12.9786C13.5927 13.1302 13.5002 13.2679 13.3837 13.3838C13.1489 13.6172 12.8312 13.7482 12.5 13.7482C12.1688 13.7482 11.8511 13.6172 11.6163 13.3838C11.3828 13.1489 11.2518 12.8312 11.2518 12.5C11.2518 12.1688 11.3828 11.8511 11.6163 11.6163ZM17.5 11.25C17.3357 11.2495 17.1729 11.2815 17.0211 11.3441C16.8692 11.4068 16.7312 11.4988 16.615 11.615C16.4988 11.7312 16.4068 11.8692 16.3441 12.0211C16.2815 12.1729 16.2495 12.3357 16.25 12.5C16.2495 12.6643 16.2815 12.8271 16.3441 12.9789C16.4068 13.1308 16.4988 13.2688 16.615 13.385C16.7312 13.5012 16.8692 13.5932 17.0211 13.6559C17.1729 13.7185 17.3357 13.7505 17.5 13.75C17.6643 13.7505 17.8271 13.7185 17.9789 13.6559C18.1308 13.5932 18.2688 13.5012 18.385 13.385C18.5012 13.2688 18.5932 13.1308 18.6559 12.9789C18.7185 12.8271 18.7505 12.6643 18.75 12.5C18.7505 12.3357 18.7185 12.1729 18.6559 12.0211C18.5932 11.8692 18.5012 11.7312 18.385 11.615C18.2688 11.4988 18.1308 11.4068 17.9789 11.3441C17.8271 11.2815 17.6643 11.2495 17.5 11.25Z" fill="#B0AAD0"/>
</svg>

