<svg width="25" height="25" viewBox="0 0 25 25" fill="none" xmlns="http://www.w3.org/2000/svg">
<rect width="25" height="25" rx="12.5" fill="#B0AAD0"/>
<path d="M9.778 18V8.2H14.02C15.3267 8.2 16.3627 8.47533 17.128 9.026C17.8933 9.57667 18.276 10.4027 18.276 11.504C18.276 12.596 17.8933 13.4173 17.128 13.968C16.3627 14.5187 15.3267 14.794 14.02 14.794H11.038L12.06 13.786V18H9.778ZM12.06 14.024L11.038 13.016H14.006C14.6313 13.016 15.1167 12.89 15.462 12.638C15.8073 12.3767 15.98 12.0033 15.98 11.518C15.98 11.042 15.8073 10.678 15.462 10.426C15.1167 10.174 14.6313 10.048 14.006 10.048H11.038L12.06 8.97V14.024ZM8.42 16.74V15.578H15.084V16.74H8.42Z" fill="white"/>
</svg>
