<svg width="172" height="23" viewBox="0 0 172 23" fill="none" xmlns="http://www.w3.org/2000/svg">
<path d="M33.608 21.624V23H22.184L17.288 7.448L12.424 23H1V21.624H8.232L0.904 0.631998H6.312L10.728 13.496L14.696 0.631998H19.912L23.848 13.496L28.296 0.631998H33.704L26.376 21.624H33.608ZM44.0898 21.624V23H33.5938V21.624H36.3458V0.631998H41.3378V21.624H44.0898ZM46.8458 21.624V0.631998H51.5178L62.4938 15.032V0.631998H67.4858V21.624H70.5898V23H62.4938L51.8378 8.984V23H43.7417V21.624H46.8458ZM90.666 21.624V23H70.25V21.624H74.602C73.4287 21.0267 72.362 20.2587 71.402 19.32L74.378 15.672C76.7887 17.784 79.018 18.84 81.066 18.84C81.9833 18.84 82.698 18.648 83.21 18.264C83.7433 17.8587 84.01 17.3253 84.01 16.664C84.01 15.9813 83.7327 15.448 83.178 15.064C82.6233 14.6587 81.5247 14.2533 79.882 13.848C77.2793 13.2293 75.37 12.4293 74.154 11.448C72.9593 10.4453 72.362 8.888 72.362 6.776C72.362 4.64267 73.1193 3 74.634 1.848C76.17 0.695999 78.0793 0.119999 80.362 0.119999C81.8553 0.119999 83.3487 0.375999 84.842 0.887999C86.3353 1.4 87.6367 2.12533 88.746 3.064L86.218 6.712C84.2767 5.24 82.2713 4.504 80.202 4.504C79.37 4.504 78.7087 4.70667 78.218 5.112C77.7487 5.496 77.514 6.01867 77.514 6.68C77.514 7.32 77.802 7.832 78.378 8.216C78.9753 8.6 80.33 9.05867 82.442 9.592C84.5753 10.104 86.2287 10.8827 87.402 11.928C88.5753 12.9733 89.162 14.424 89.162 16.28C89.162 18.584 88.298 20.3653 86.57 21.624H90.666ZM109.925 21.624V23H90.4688V21.624H97.7008V4.952H91.3648V0.631998H109.029V4.952H102.693V21.624H109.925ZM135.417 21.624V23H127.001L124.921 18.168H115.545L113.465 23H105.048V21.624H108.729L117.817 0.631998H122.649L131.705 21.624H135.417ZM120.249 7.288L117.433 13.784H123.033L120.249 7.288ZM151.74 21.624V23H132.156V21.624H134.908V0.631998H150.268V5.016H139.9V9.848H149.756V14.232H139.9V21.624H151.74ZM171.334 21.624V23H151.75V21.624H154.502V0.631998H169.862V5.016H159.494V9.848H169.35V14.232H159.494V21.624H171.334Z" fill="black"/>
</svg>
