<svg width="50" height="51" viewBox="0 0 50 51" fill="none" xmlns="http://www.w3.org/2000/svg">
<path d="M25.0483 14.7942C26.7711 14.7942 28.1765 16.1996 28.1765 17.9223C28.1765 19.645 26.7711 21.0502 25.0483 21.0502C23.3258 21.0502 21.9204 19.645 21.9204 17.9223C21.875 16.1996 23.2804 14.7942 25.0483 14.7942Z" fill="#222222"/>
<path fill-rule="evenodd" clip-rule="evenodd" d="M25 0C11.1929 0 0 11.1929 0 25C0 38.8071 11.1929 50 25 50C38.8071 50 50 38.8071 50 25C50 11.1929 38.8071 0 25 0ZM25.0483 25.4929C29.2192 25.4929 32.6192 22.0929 32.6192 17.9223C32.6192 13.7516 29.2192 10.3516 25.0483 10.3516C20.8324 10.3516 17.4324 13.7516 17.4324 17.9223C17.4324 22.0929 20.8324 25.4929 25.0483 25.4929ZM28.0858 31.7037C29.6271 31.341 31.1231 30.7517 32.4831 29.8904C33.5258 29.2556 33.8431 27.8504 33.1631 26.8077C32.5285 25.765 31.1231 25.4477 30.0804 26.1277C26.9977 28.0771 22.9631 28.0771 19.8804 26.1277C18.8378 25.4931 17.4778 25.765 16.7978 26.8077C16.2084 27.8504 16.5258 29.2104 17.5684 29.845C18.9284 30.7065 20.4244 31.2956 21.9658 31.6583L17.7498 35.8744C16.8884 36.7358 16.8884 38.141 17.7498 39.0025C18.2031 39.4558 18.7471 39.6371 19.3364 39.6371C19.9258 39.6371 20.4698 39.4104 20.9231 39.0025L25.0938 34.8317L29.2646 39.0025C30.1258 39.8638 31.5313 39.8638 32.3925 39.0025C33.2538 38.141 33.2538 36.7358 32.3925 35.8744L28.0858 31.7037Z" fill="#222222"/>
</svg>
