<svg width="50" height="50" viewBox="0 0 50 50" fill="none" xmlns="http://www.w3.org/2000/svg">
<path d="M50 25C50 11.1929 38.8071 0 25 0C11.1929 0 0 11.1929 0 25C0 38.8071 11.1929 50 25 50C38.8071 50 50 38.8071 50 25Z" fill="#222222"/>
<path d="M26.3892 35.1211C15.7124 35.1211 9.62475 27.8159 9.375 15.6406H14.7446C14.9163 24.5692 18.8499 28.3467 21.9718 29.1271V15.6406H27.0136V23.336C30.0887 23.0082 33.3354 19.4961 34.4281 15.625H39.4543C39.0445 17.6289 38.2258 19.5267 37.0494 21.1999C35.8731 22.8732 34.3643 24.2858 32.6174 25.3497C34.5669 26.32 36.2886 27.6925 37.6688 29.3769C39.0491 31.0612 40.0566 33.019 40.625 35.1211H35.0837C33.8974 31.4217 30.9316 28.5496 27.0136 28.1593V35.1211H26.4048H26.3892Z" fill="white"/>
</svg>
